<svg width="17" height="17" viewBox="0 0 17 17" fill="none" xmlns="http://www.w3.org/2000/svg">
<path d="M11.1466 6.68362L15.5692 5.38284C15.9138 5.28148 16.111 4.91996 16.0096 4.57536C15.9083 4.23075 15.5468 4.03362 15.2021 4.13492L10.7795 5.43569C10.4349 5.53705 10.2377 5.89857 10.3391 6.24317C10.4403 6.58733 10.8015 6.78508 11.1466 6.68362Z" fill="currentColor"/>
<path d="M8.98528 3.89506C8.80626 3.77409 8.57892 3.74996 8.3785 3.83051L3.0321 5.97994H0.686519C0.327311 5.97994 0.0361328 6.27112 0.0361328 6.63033V10.0422C0.0361328 10.4014 0.327311 10.6926 0.686519 10.6926H2.50757V13.3343C2.50757 13.6935 2.79874 13.9846 3.15795 13.9846C3.51716 13.9846 3.80834 13.6935 3.80834 13.3343V11.0047L8.37854 12.842C8.57716 12.9218 8.80464 12.8996 8.98531 12.7775C9.1643 12.6565 9.27155 12.4546 9.27155 12.2386V4.43394C9.27152 4.21792 9.16427 4.016 8.98528 3.89506ZM2.5076 9.3918H1.3369V7.28071H2.5076V9.3918ZM7.97074 11.2761L3.80831 9.60269V7.06979L7.97074 5.39638V11.2761Z" fill="currentColor"/>
<path d="M10.9629 7.68536C10.6037 7.68536 10.3125 7.97654 10.3125 8.33575C10.3125 8.69496 10.6037 8.98614 10.9629 8.98614H15.3855C15.7447 8.98614 16.0359 8.69496 16.0359 8.33575C16.0359 7.97654 15.7447 7.68536 15.3855 7.68536H10.9629Z" fill="currentColor"/>
<path d="M15.5692 11.2895L11.1466 9.98874C10.8019 9.88744 10.4405 10.0846 10.3391 10.4292C10.2378 10.7738 10.4349 11.1353 10.7795 11.2367L15.2021 12.5374C15.5482 12.6391 15.9087 12.4401 16.0096 12.097C16.111 11.7524 15.9138 11.3909 15.5692 11.2895Z" fill="currentColor"/>
</svg>
