<svg width="209" height="149" viewBox="0 0 209 149" fill="none" xmlns="http://www.w3.org/2000/svg">
<g clip-path="url(#clip0)">
<path d="M180.908 0.110352H96.1578C82.7761 0.110352 71.9434 10.8894 71.9434 24.2046C71.9434 37.5198 82.7761 48.2988 96.1578 48.2988H180.908C194.29 48.2988 205.123 37.5198 205.123 24.2046C205.123 10.8894 194.29 0.110352 180.908 0.110352Z" fill="#88B8BA"/>
<path d="M186.324 13.5312H90.741C89.7321 13.5312 88.9355 14.3238 88.9355 15.3278C88.9355 16.3317 89.7321 17.1243 90.741 17.1243H186.324C187.333 17.1243 188.13 16.3317 188.13 15.3278C188.183 14.3767 187.333 13.5312 186.324 13.5312Z" fill="#A5D4D6"/>
<path d="M186.324 22.4082H90.741C89.7321 22.4082 88.9355 23.2008 88.9355 24.2047C88.9355 25.2086 89.7321 26.0012 90.741 26.0012H186.324C187.333 26.0012 188.13 25.2086 188.13 24.2047C188.183 23.2008 187.333 22.4082 186.324 22.4082Z" fill="#A5D4D6"/>
<path d="M186.324 31.2847H90.741C89.7321 31.2847 88.9355 32.0772 88.9355 33.0812C88.9355 34.0851 89.7321 34.8777 90.741 34.8777H186.324C187.333 34.8777 188.13 34.0851 188.13 33.0812C188.183 32.0772 187.333 31.2847 186.324 31.2847Z" fill="#A5D4D6"/>
<path d="M126.904 42.8036V55.1149C126.904 57.1227 129.347 58.1267 130.728 56.7L145.065 42.3809L126.904 42.8036Z" fill="#88B8BA"/>
<path d="M78.8468 53.3184H21.9216C10.2392 53.3184 0.787109 62.7236 0.787109 74.348C0.787109 85.9724 10.2392 95.3776 21.9216 95.3776H78.8468C90.5293 95.3776 99.9814 85.9724 99.9814 74.348C99.9814 62.6707 90.5293 53.3184 78.8468 53.3184Z" fill="#6FC7A9"/>
<path d="M83.4135 64.9956H17.3548C16.5051 64.9956 15.7617 65.6825 15.7617 66.5808C15.7617 67.4262 16.452 68.1659 17.3548 68.1659H83.3604C84.21 68.1659 84.9534 67.479 84.9534 66.5808C84.9534 65.6825 84.2631 64.9956 83.4135 64.9956Z" fill="#89DDC1"/>
<path d="M83.4135 72.71H17.3548C16.5051 72.71 15.7617 73.3969 15.7617 74.2951C15.7617 75.1405 16.452 75.8803 17.3548 75.8803H83.3604C84.21 75.8803 84.9534 75.1934 84.9534 74.2951C84.9534 73.4497 84.2631 72.71 83.4135 72.71Z" fill="#89DDC1"/>
<path d="M83.4135 80.4771H17.3548C16.5051 80.4771 15.7617 81.164 15.7617 82.0622C15.7617 82.9076 16.452 83.6474 17.3548 83.6474H83.3604C84.21 83.6474 84.9534 82.9605 84.9534 82.0622C84.9534 81.164 84.2631 80.4771 83.4135 80.4771Z" fill="#89DDC1"/>
<path d="M84.9009 90.4636V101.19C84.9009 102.933 82.7768 103.779 81.5555 102.564L69.0234 90.0938L84.9009 90.4636Z" fill="#6FC7A9"/>
<path d="M189.565 78.0469H122.391C111.77 78.0469 103.168 86.6067 103.168 97.1743C103.168 107.742 111.77 116.302 122.391 116.302H189.565C200.185 116.302 208.788 107.742 208.788 97.1743C208.788 86.6067 200.185 78.0469 189.565 78.0469Z" fill="#9EEAD1"/>
<path d="M188.768 88.1919H121.701C120.533 88.1919 119.63 88.826 119.63 89.6185C119.63 90.4111 120.586 91.0452 121.701 91.0452H188.768C189.937 91.0452 190.839 90.4111 190.839 89.6185C190.839 88.826 189.884 88.1919 188.768 88.1919Z" fill="#C3F9E7"/>
<path d="M188.768 95.2192H121.701C120.533 95.2192 119.63 95.8533 119.63 96.6459C119.63 97.4385 120.586 98.0725 121.701 98.0725H188.768C189.937 98.0725 190.839 97.4385 190.839 96.6459C190.839 95.8533 189.884 95.2192 188.768 95.2192Z" fill="#C3F9E7"/>
<path d="M188.768 102.247H121.701C120.533 102.247 119.63 102.881 119.63 103.674C119.63 104.466 120.586 105.1 121.701 105.1H188.768C189.937 105.1 190.839 104.466 190.839 103.674C190.839 102.881 189.884 102.247 188.768 102.247Z" fill="#C3F9E7"/>
<path d="M117.931 111.916V121.639C117.931 123.224 119.842 124.016 120.957 122.907L132.374 111.546L117.931 111.916Z" fill="#9EEAD1"/>
<path d="M58.8869 124.81C60.9191 122.788 60.9191 119.509 58.8869 117.487C56.8546 115.465 53.5597 115.465 51.5274 117.487C49.4951 119.509 49.4951 122.788 51.5274 124.81C53.5597 126.832 56.8546 126.832 58.8869 124.81Z" fill="#CEEDF0"/>
<path d="M138.268 145.838C138.268 147.107 137.259 148.111 135.985 148.111C134.71 148.111 133.701 147.107 133.701 145.838C133.701 144.57 134.71 143.566 135.985 143.566C137.259 143.566 138.268 144.57 138.268 145.838Z" fill="#CEEDF0"/>
<path d="M160.305 123.435C160.305 124.703 159.296 125.707 158.022 125.707C156.747 125.707 155.738 124.703 155.738 123.435C155.738 122.167 156.747 121.163 158.022 121.163C159.296 121.163 160.305 122.167 160.305 123.435Z" fill="#CEEDF0"/>
<path d="M62.269 22.889C64.6534 21.9063 65.7857 19.1862 64.798 16.8136C63.8104 14.4411 61.0768 13.3144 58.6924 14.2972C56.3079 15.28 55.1757 18 56.1633 20.3726C57.151 22.7452 59.8846 23.8718 62.269 22.889Z" fill="#CEEDF0"/>
<path d="M11.7793 112.286C14.5067 112.286 16.7178 110.086 16.7178 107.372C16.7178 104.658 14.5067 102.458 11.7793 102.458C9.05185 102.458 6.84082 104.658 6.84082 107.372C6.84082 110.086 9.05185 112.286 11.7793 112.286Z" fill="#CEEDF0"/>
<path d="M25.6387 112.286C28.3661 112.286 30.5771 110.086 30.5771 107.372C30.5771 104.658 28.3661 102.458 25.6387 102.458C22.9112 102.458 20.7002 104.658 20.7002 107.372C20.7002 110.086 22.9112 112.286 25.6387 112.286Z" fill="#CEEDF0"/>
<path d="M39.4453 112.286C42.1728 112.286 44.3838 110.086 44.3838 107.372C44.3838 104.658 42.1728 102.458 39.4453 102.458C36.7179 102.458 34.5068 104.658 34.5068 107.372C34.5068 110.086 36.7179 112.286 39.4453 112.286Z" fill="#CEEDF0"/>
<path d="M75.1833 41.3242H55.5887C53.8894 41.3242 52.5088 42.698 52.5088 44.3888C52.5088 46.0797 53.8894 47.4535 55.5887 47.4535H75.1833C76.8825 47.4535 78.2632 46.0797 78.2632 44.3888C78.2101 42.698 76.8294 41.3242 75.1833 41.3242Z" fill="#CEEDF0"/>
<path d="M48.7917 44.3888C48.7917 46.0797 47.411 47.4535 45.7117 47.4535C44.0125 47.4535 42.6318 46.0797 42.6318 44.3888C42.6318 42.698 44.0125 41.3242 45.7117 41.3242C47.411 41.3242 48.7917 42.698 48.7917 44.3888Z" fill="#CEEDF0"/>
<path d="M107.788 70.7548H122.232C123.453 70.7548 124.462 69.7509 124.462 68.5356C124.462 67.3203 123.453 66.3164 122.232 66.3164H107.788C106.567 66.3164 105.558 67.3203 105.558 68.5356C105.505 69.7509 106.513 70.7548 107.788 70.7548Z" fill="#CEEDF0"/>
<path d="M127.17 68.4829C127.17 67.2676 128.179 66.2637 129.4 66.2637C130.622 66.2637 131.63 67.2676 131.63 68.4829C131.63 69.6982 130.622 70.7021 129.4 70.7021C128.179 70.7549 127.17 69.751 127.17 68.4829Z" fill="#CEEDF0"/>
<path d="M78.9002 124.755H93.3439C94.5653 124.755 95.5742 123.751 95.5742 122.536C95.5742 121.321 94.5653 120.317 93.3439 120.317H78.9002C77.6789 120.317 76.6699 121.321 76.6699 122.536C76.6699 123.751 77.6789 124.755 78.9002 124.755Z" fill="#CEEDF0"/>
<path d="M98.2822 122.483C98.2822 121.268 99.2912 120.264 100.513 120.264C101.734 120.264 102.743 121.268 102.743 122.483C102.743 123.699 101.734 124.703 100.513 124.703C99.2912 124.755 98.2822 123.751 98.2822 122.483Z" fill="#CEEDF0"/>
<path d="M163.917 137.226H179.21C181.228 137.226 182.821 135.588 182.821 133.633C182.821 131.625 181.175 130.04 179.21 130.04H163.97C161.952 130.04 160.359 131.678 160.359 133.633C160.306 135.64 161.952 137.226 163.917 137.226Z" fill="#CEEDF0"/>
<path d="M190.839 137.226C192.834 137.226 194.45 135.617 194.45 133.633C194.45 131.648 192.834 130.04 190.839 130.04C188.845 130.04 187.229 131.648 187.229 133.633C187.229 135.617 188.845 137.226 190.839 137.226Z" fill="#CEEDF0"/>
<path d="M149.048 55.4321L147.402 57.07C146.286 58.1797 144.481 58.1797 143.366 57.07L141.72 55.4321C140.764 54.481 139.277 54.4281 138.321 55.3264C137.312 56.2775 137.312 57.8098 138.268 58.7609L140.02 60.5045C141.136 61.6141 141.136 63.4106 140.02 64.5202L138.374 66.1582C137.418 67.1093 137.365 68.5888 138.268 69.5399C139.224 70.5438 140.764 70.5438 141.72 69.5927L143.472 67.849C144.587 66.7394 146.393 66.7394 147.508 67.849L149.154 69.487C150.11 70.4381 151.597 70.491 152.552 69.5927C153.561 68.6416 153.561 67.1093 152.606 66.1582L150.853 64.4146C149.738 63.305 149.738 61.5085 150.853 60.3989L152.606 58.6552C153.561 57.7041 153.561 56.1718 152.552 55.2207C151.543 54.3753 150.004 54.481 149.048 55.4321Z" fill="#CEEDF0"/>
<path d="M140.339 129.194H139.011C138.108 129.194 137.365 128.454 137.365 127.556V126.235C137.365 125.495 136.781 124.861 136.037 124.809C135.241 124.809 134.604 125.39 134.604 126.182V127.556C134.604 128.454 133.86 129.194 132.958 129.194H131.63C130.887 129.194 130.249 129.775 130.196 130.515C130.196 131.308 130.78 131.942 131.577 131.942H132.958C133.86 131.942 134.604 132.681 134.604 133.58V134.901C134.604 135.64 135.188 136.274 135.931 136.327C136.728 136.327 137.365 135.746 137.365 134.954V133.58C137.365 132.681 138.108 131.942 139.011 131.942H140.392C141.188 131.942 141.773 131.308 141.773 130.515C141.719 129.775 141.082 129.194 140.339 129.194Z" fill="#CEEDF0"/>
</g>
<defs>
<clipPath id="clip0">
<rect width="208" height="148" fill="white" transform="translate(0.787109 0.110352)"/>
</clipPath>
</defs>
</svg>
