<svg width="25" height="23" viewBox="0 0 25 23" fill="none" xmlns="http://www.w3.org/2000/svg">
<path d="M1.44164 7.74253V5.45542C1.44164 4.87778 1.66655 4.33468 2.07504 3.92618C2.48354 3.51768 3.02665 3.29278 3.60429 3.29278C4.79675 3.29278 5.76693 4.26297 5.76693 5.45542V5.79596L9.08543 2.47747C9.91932 1.64358 11.276 1.64358 12.1099 2.47747C12.3031 2.67064 12.451 2.89235 12.5547 3.1287C13.3797 2.66069 14.4489 2.77746 15.1513 3.47995C15.5313 3.85991 15.7523 4.35645 15.7814 4.88904C16.3138 4.91795 16.8103 5.13891 17.1903 5.51888C17.5702 5.89884 17.7912 6.39539 17.8203 6.92797C18.3527 6.95688 18.8492 7.17784 19.2292 7.55781C19.6377 7.96631 19.8628 8.50941 19.8628 9.08705C19.8628 9.6647 19.6377 10.2078 19.2292 10.6163L18.6319 11.2137C18.8479 11.3165 19.0505 11.4569 19.2292 11.6357C20.0725 12.4789 20.0725 13.8509 19.2292 14.6942L12.4326 21.4907C11.5426 22.3807 10.3734 22.8257 9.20426 22.8257C8.03527 22.8257 6.86609 22.3807 5.97606 21.4907L0.774078 16.2887C0.274719 15.7896 -0.000118256 15.1257 -0.000118256 14.4197V9.78109C-0.000118256 8.8415 0.602493 8.04008 1.44164 7.74253ZM11.0904 3.49684C10.9545 3.36111 10.7761 3.29315 10.5976 3.29315C10.4192 3.29315 10.2407 3.36111 10.105 3.49684L5.55574 8.04609C5.34961 8.25222 5.03948 8.31379 4.77028 8.20228C4.50089 8.09077 4.32517 7.82776 4.32517 7.53622V5.45542C4.32517 5.058 4.00171 4.73454 3.60429 4.73454C3.41168 4.73454 3.23071 4.80945 3.0946 4.94574C2.9585 5.08184 2.88341 5.26281 2.88341 5.45542V7.74216V7.74253C3.72256 8.04008 4.32517 8.8415 4.32517 9.78128V11.2476L11.0904 4.48242C11.362 4.21059 11.362 3.76849 11.0904 3.49684ZM14.1318 4.49932C13.8508 4.21829 13.3934 4.21829 13.1124 4.49932L12.5149 5.09686C12.7311 5.19974 12.9337 5.34016 13.1124 5.51888C13.2911 5.69759 13.4316 5.90016 13.5344 6.11642L14.132 5.51888C14.2681 5.38277 14.343 5.2018 14.343 5.00919C14.343 4.81658 14.2681 4.63561 14.1318 4.49932ZM1.44164 14.4197C1.44164 14.7407 1.56667 15.0424 1.79345 15.2694L6.99544 20.4713C8.21342 21.6891 10.1953 21.6893 11.4133 20.4713L15.1513 16.7331L18.2098 13.6746C18.4909 13.3936 18.4909 12.9363 18.2098 12.6552C17.9286 12.3742 17.4713 12.3742 17.1903 12.6552L14.1318 15.7137C13.8504 15.9951 13.3938 15.9951 13.1124 15.7137C12.8308 15.4321 12.8308 14.9758 13.1124 14.6942L18.2098 9.59674C18.3459 9.46063 18.421 9.27966 18.421 9.08705C18.421 8.89444 18.3459 8.71347 18.2098 8.57737C18.0735 8.44107 17.8926 8.36617 17.7001 8.36617C17.5075 8.36617 17.3266 8.44107 17.1903 8.57737L12.0929 13.6746C12.0754 13.6922 12.057 13.7088 12.0382 13.7242C11.7739 13.9397 11.3924 13.9397 11.1281 13.7242C11.1093 13.7088 11.0909 13.6922 11.0735 13.6746C10.7919 13.3932 10.7919 12.9368 11.0735 12.6552L16.1707 7.55781C16.4517 7.27678 16.4517 6.81947 16.1707 6.53844C15.8897 6.2574 15.4324 6.25722 15.1513 6.53844L13.1124 8.57737L10.0539 11.6357C10.0363 11.6533 10.0181 11.6698 9.99911 11.6852C9.73497 11.9007 9.35351 11.9007 9.08918 11.6852C9.07022 11.6698 9.05201 11.6533 9.03437 11.6357C8.75296 11.3543 8.75296 10.8979 9.03437 10.6163L12.0929 7.55781C12.3739 7.27678 12.3739 6.81947 12.0929 6.53844C11.9568 6.40214 11.7756 6.32724 11.5832 6.32724C11.3906 6.32724 11.2096 6.40214 11.0735 6.53844L8.01499 9.59674L4.11398 13.4978C3.90785 13.7041 3.59772 13.7656 3.32851 13.6539C3.05912 13.5424 2.88341 13.2796 2.88341 12.9881V9.78128C2.88341 9.38366 2.55995 9.06039 2.16253 9.06039C1.7651 9.06039 1.44164 9.38366 1.44164 9.78128V14.4197Z" fill="currentColor"/>
<path d="M18.117 3.74858C17.7188 3.74858 17.3961 3.42588 17.3961 3.0277V0.720881C17.3961 0.322707 17.7188 0 18.117 0C18.5152 0 18.8379 0.322707 18.8379 0.720881V3.0277C18.8379 3.42588 18.5152 3.74858 18.117 3.74858Z" fill="currentColor"/>
<path d="M21.9813 1.60489C22.2628 1.3233 22.7193 1.3233 23.0007 1.60489C23.2823 1.88649 23.2823 2.34286 23.0007 2.62426L21.2706 4.35438C21.13 4.49518 20.9455 4.56558 20.7609 4.56558C20.5766 4.56558 20.392 4.49518 20.2512 4.35438C19.9696 4.07297 19.9696 3.6166 20.2512 3.33501L21.9813 1.60489Z" fill="currentColor"/>
<path d="M21.5778 5.76706H23.8846C24.2828 5.76706 24.6055 6.08976 24.6055 6.48794C24.6055 6.88611 24.2828 7.20882 23.8846 7.20882H21.5778C21.1796 7.20882 20.8569 6.88611 20.8569 6.48794C20.8569 6.08976 21.1796 5.76706 21.5778 5.76706Z" fill="currentColor"/>
</svg>
