<svg width="18" height="17" viewBox="0 0 18 17" fill="none" xmlns="http://www.w3.org/2000/svg">
<path d="M17.387 1.55159L16.3962 0.560818C16.0834 0.247941 15.6401 0.0654297 15.2229 0.0654297C14.8058 0.0654297 14.3625 0.247941 14.0497 0.560818L4.84587 9.7646L4.533 12.7369C4.48085 13.102 4.76765 13.4148 5.13268 13.4148C5.15875 13.4148 5.18482 13.4148 5.2109 13.4148L8.18322 13.102L17.387 3.89817C18.0388 3.24634 18.0388 2.20342 17.387 1.55159ZM7.60962 11.9026L5.86272 12.0851L6.04523 10.3382L12.0681 4.28926L12.8764 3.481L14.4668 5.07145L13.6586 5.87972L7.60962 11.9026ZM16.5005 3.01168L15.3533 4.18497L13.7629 2.59452L14.9361 1.4473C15.0404 1.34301 15.1708 1.31694 15.2229 1.31694C15.2751 1.31694 15.4055 1.34301 15.5098 1.4473L16.5005 2.43808C16.657 2.59452 16.657 2.85525 16.5005 3.01168Z" fill="#333333"/>
<path fill-rule="evenodd" clip-rule="evenodd" d="M0.969727 1.43011C0.969727 1.09333 1.24274 0.820312 1.57953 0.820312H8.38898C8.72576 0.820312 8.99878 1.09333 8.99878 1.43011C8.99878 1.7669 8.72576 2.03992 8.38898 2.03992H2.18933V15.7604H16.0115V7.62976C16.0115 7.29298 16.2845 7.01996 16.6213 7.01996C16.9581 7.01996 17.2311 7.29298 17.2311 7.62976V16.3702C17.2311 16.707 16.9581 16.9801 16.6213 16.9801H1.57953C1.24274 16.9801 0.969727 16.707 0.969727 16.3702V1.43011Z" fill="#333333"/>
</svg>
