<svg width="182" height="181" viewBox="0 0 182 181" fill="none" xmlns="http://www.w3.org/2000/svg">
<path d="M160.133 155.185C156.416 159.063 152.896 161.564 150.116 163.545C117.436 186.781 78.7703 180.005 70.5494 178.349C58.4148 175.907 34.9585 171.184 17.9988 151.424C-7.66025 121.524 -3.66127 74.4231 16.2353 43.3343C19.8737 37.644 39.1082 6.08098 78.1868 1.02077C101.84 -2.04524 129.413 4.13874 149.382 20.7095C191.299 55.5009 188.31 125.792 160.133 155.185Z" fill="url(#paint0_linear)"/>
<path d="M173.924 70.6002C173.918 69.6338 172.608 69.3196 172.159 70.1793C167.821 78.4496 155.771 99.7747 142.063 109.581C119.751 125.546 100.922 155.07 109.059 174.066C109.065 174.06 174.624 175.601 173.924 70.6002Z" fill="#89DDC1"/>
<path opacity="0.43" d="M169.538 82.7711C169.455 83.0556 169.365 83.2809 169.275 83.5299L169 84.2532L168.437 85.6938C168.054 86.6543 167.66 87.6028 167.265 88.5573C166.469 90.4604 165.643 92.3516 164.806 94.2369C163.118 98.0015 161.329 101.725 159.486 105.418C157.65 109.118 155.705 112.764 153.683 116.362C151.66 119.967 149.584 123.542 147.388 127.046C143.014 134.065 138.252 140.853 133.022 147.28C130.378 150.463 127.643 153.588 124.73 156.54C121.798 159.475 118.74 162.285 115.491 164.864C115.42 164.917 115.318 164.911 115.258 164.84C115.204 164.769 115.21 164.674 115.276 164.615C118.411 161.923 121.397 159.072 124.233 156.078C127.081 153.09 129.744 149.948 132.328 146.734C134.907 143.521 137.354 140.207 139.73 136.84C142.099 133.472 144.331 130.004 146.539 126.53C150.924 119.558 154.939 112.355 158.744 105.051C160.641 101.393 162.46 97.6992 164.219 93.9701C165.099 92.1086 165.96 90.241 166.804 88.3558L168.042 85.5278L168.647 84.105L168.94 83.3936C169.03 83.1564 169.137 82.9074 169.209 82.6999L169.221 82.6643C169.251 82.5813 169.341 82.5339 169.425 82.5636C169.514 82.5991 169.562 82.6881 169.538 82.7711Z" fill="white"/>
<path d="M147.538 29.8118C147.269 28.9284 145.982 28.9936 145.803 29.9007C144.104 38.6572 138.922 61.4704 129.056 74.1694C112.991 94.8423 103.854 127.011 116.545 142.223C116.545 142.223 177.089 125.914 147.538 29.8118Z" fill="#88B8BA"/>
<path opacity="0.43" d="M146.868 42.1603C146.868 42.4449 146.85 42.6761 146.838 42.9251L146.79 43.6662L146.67 45.1424C146.586 46.1265 146.485 47.1047 146.383 48.0889C146.173 50.0512 145.94 52.0077 145.695 53.9641C145.186 57.8769 144.57 61.772 143.9 65.6552C143.23 69.5444 142.452 73.4098 141.59 77.2634C140.729 81.111 139.807 84.9527 138.76 88.7588C136.684 96.3771 134.183 103.889 131.155 111.198C129.606 114.839 127.954 118.437 126.1 121.929C124.221 125.409 122.187 128.818 119.919 132.061C119.871 132.132 119.769 132.15 119.698 132.103C119.626 132.055 119.608 131.96 119.656 131.889C121.792 128.575 123.736 125.148 125.513 121.639C127.302 118.135 128.882 114.524 130.36 110.884C131.838 107.238 133.172 103.539 134.422 99.8097C135.667 96.0806 136.756 92.2982 137.827 88.5158C139.933 80.9331 141.626 73.2438 143.11 65.5189C143.84 61.6534 144.498 57.7702 145.079 53.8811C145.372 51.9365 145.653 49.986 145.904 48.0355L146.263 45.1068L146.425 43.6424L146.497 42.9073C146.515 42.6642 146.544 42.4093 146.55 42.1959V42.1603C146.556 42.0714 146.628 42.0062 146.718 42.0121C146.802 42.0062 146.868 42.0773 146.868 42.1603Z" fill="white"/>
<path d="M13.7009 80.1328C13.7049 79.4862 14.5816 79.276 14.8818 79.8512C17.7841 85.3846 25.8465 99.6523 35.0178 106.213C49.9457 116.895 62.5437 136.649 57.0994 149.358C57.0954 149.354 13.2325 150.385 13.7009 80.1328Z" fill="#89DDC1"/>
<path opacity="0.43" d="M16.6354 88.2756C16.6914 88.466 16.7515 88.6168 16.8115 88.7833L16.9957 89.2673L17.372 90.2312C17.6282 90.8737 17.8924 91.5084 18.1566 92.147C18.689 93.4203 19.2414 94.6856 19.8019 95.947C20.9308 98.4658 22.1277 100.957 23.3607 103.428C24.5897 105.903 25.8907 108.343 27.2438 110.75C28.5969 113.162 29.986 115.554 31.4552 117.898C34.3815 122.594 37.568 127.136 41.0668 131.436C42.8362 133.566 44.6657 135.656 46.6152 137.632C48.5768 139.595 50.6224 141.475 52.7961 143.201C52.8442 143.237 52.9122 143.233 52.9522 143.185C52.9883 143.137 52.9843 143.074 52.9402 143.034C50.8426 141.233 48.845 139.325 46.9475 137.322C45.042 135.323 43.2605 133.221 41.5312 131.071C39.8058 128.921 38.1685 126.704 36.5792 124.451C34.994 122.198 33.5008 119.877 32.0236 117.553C29.0893 112.888 26.4031 108.069 23.8571 103.182C22.5881 100.735 21.3711 98.2635 20.1942 95.7685C19.6057 94.523 19.0293 93.2735 18.4648 92.0121L17.6362 90.1201L17.2318 89.1681L17.0357 88.6921C16.9756 88.5335 16.9036 88.3669 16.8555 88.228L16.8475 88.2042C16.8275 88.1487 16.7675 88.117 16.7114 88.1368C16.6514 88.1606 16.6194 88.2201 16.6354 88.2756Z" fill="white"/>
<path d="M40.5985 38.272C40.0301 61.0792 38.1753 139.757 39.0608 167.633C39.1566 170.586 41.5439 172.957 44.5236 173.052C59.2664 173.532 101.676 174.742 125.794 173.74C130.814 173.532 134.811 169.501 134.913 164.521C135.416 140.581 136.522 73.2447 133.89 42.3983C133.573 38.7048 130.647 35.7583 126.925 35.3907C110.872 33.8019 68.2233 29.9127 47.3955 31.2526C43.638 31.4957 40.6883 34.543 40.5985 38.272Z" fill="url(#paint1_linear)"/>
<path d="M46.5882 45.3623C45.7804 64.0432 43.2435 126.186 44.0513 149.166C44.1709 152.527 46.8395 155.242 50.226 155.438C64.167 156.244 99.9231 158.029 120.374 156.404C124.054 156.114 126.944 153.161 127.147 149.509C128.182 130.449 131.156 72.5863 130.384 49.868C130.258 46.2456 127.428 43.2813 123.778 42.9612C108.695 41.6213 69.9588 38.4258 52.5834 39.3685C49.3225 39.5345 46.7258 42.1253 46.5882 45.3623Z" fill="#CBDFDF"/>
<path opacity="0.5" d="M77.0312 35.2369C77.0312 35.9364 77.5817 36.5115 78.2877 36.553C81.77 36.7309 91.5766 37.2466 95.9623 37.4956C96.8239 37.5431 97.506 36.7783 97.3385 35.9305L97.3086 35.7882C97.1949 35.2131 96.7162 34.7804 96.1299 34.727C93.1681 34.4602 84.2231 33.7132 78.2997 33.9207C77.5937 33.9504 77.0312 34.5314 77.0312 35.2369Z" fill="white"/>
<path d="M116.036 112.717L56.7597 111.59C54.8271 111.555 53.3732 113.784 53.5347 116.547C53.6903 119.28 55.7067 120.104 57.6034 120.074L115.587 120.537C116.778 120.519 117.837 118.788 117.963 116.659C118.1 114.513 117.239 112.74 116.036 112.717Z" fill="white"/>
<path d="M116.197 130.734L56.9208 129.608C54.9882 129.572 53.5343 131.801 53.6959 134.564C53.8514 137.297 55.8678 138.121 57.7645 138.092L115.748 138.554C116.939 138.536 117.998 136.805 118.124 134.677C118.261 132.525 117.4 130.758 116.197 130.734Z" fill="white"/>
<path d="M90.7502 115.184L58.5841 114.852C57.5371 114.84 56.7473 115.439 56.837 116.18C56.9268 116.915 58.0157 117.134 59.0449 117.128L90.5109 117.282C91.1571 117.277 91.7315 116.814 91.7973 116.245C91.8691 115.664 91.4024 115.19 90.7502 115.184Z" fill="url(#paint2_linear)"/>
<path d="M87.2029 100.889C101.676 100.889 113.41 89.2635 113.41 74.9222C113.41 60.581 101.676 48.9551 87.2029 48.9551C72.7293 48.9551 60.9961 60.581 60.9961 74.9222C60.9961 89.2635 72.7293 100.889 87.2029 100.889Z" fill="white"/>
<path d="M95.7044 65.5728C95.7044 70.0015 92.0786 74.7858 87.609 74.7858C83.1395 74.7858 79.5137 70.0015 79.5137 65.5728C79.5137 61.1442 83.1395 57.9961 87.609 57.9961C92.0786 57.9961 95.7044 61.1382 95.7044 65.5728Z" fill="url(#paint3_linear)"/>
<path d="M77.5575 91.8423H97.3202C99.4024 91.8423 101.245 90.5084 101.88 88.546L102.945 85.2497C103.722 82.8368 102.46 80.2282 100.055 79.3567C92.0131 76.4399 83.6904 76.8193 75.1702 79.6235C72.7828 80.412 71.4605 82.9376 72.1187 85.3446L72.9384 88.3385C73.5068 90.4076 75.3975 91.8423 77.5575 91.8423Z" fill="url(#paint4_linear)"/>
<path d="M62.6049 133.781C62.569 134.937 61.5937 135.862 60.4329 135.85C59.2722 135.838 58.3567 134.889 58.3926 133.733C58.4285 132.577 59.4038 131.652 60.5646 131.664C61.7313 131.682 62.6408 132.631 62.6049 133.781Z" fill="url(#paint5_linear)"/>
<path d="M70.4791 133.876C70.4432 135.027 69.4799 135.945 68.3251 135.934C67.1704 135.922 66.2669 134.979 66.3028 133.829C66.3387 132.679 67.308 131.754 68.4628 131.772C69.6116 131.784 70.515 132.726 70.4791 133.876Z" fill="url(#paint6_linear)"/>
<path d="M78.9212 134.011C78.8853 135.167 77.91 136.092 76.7493 136.08C75.5886 136.068 74.6731 135.12 74.709 133.964C74.7449 132.808 75.7202 131.883 76.8809 131.895C78.0477 131.912 78.9571 132.855 78.9212 134.011Z" fill="url(#paint7_linear)"/>
<path d="M95.6207 134.208C95.5848 135.359 94.6215 136.278 93.4667 136.266C92.312 136.254 91.4085 135.311 91.4444 134.161C91.4803 133.011 92.4496 132.086 93.6044 132.104C94.7532 132.116 95.6566 133.058 95.6207 134.208Z" fill="url(#paint8_linear)"/>
<path d="M104.063 134.343C104.027 135.499 103.052 136.424 101.891 136.412C100.73 136.4 99.8147 135.452 99.8506 134.296C99.8865 133.14 100.862 132.215 102.023 132.227C103.189 132.244 104.099 133.193 104.063 134.343Z" fill="url(#paint9_linear)"/>
<path d="M86.7955 134.101C86.7596 135.251 85.7963 136.17 84.6415 136.158C83.4868 136.146 82.5833 135.204 82.6192 134.054C82.6551 132.903 83.6244 131.979 84.7792 131.996C85.9339 132.008 86.8374 132.957 86.7955 134.101Z" fill="url(#paint10_linear)"/>
<defs>
<linearGradient id="paint0_linear" x1="204.672" y1="233.755" x2="44.5728" y2="33.0882" gradientUnits="userSpaceOnUse">
<stop stop-color="#D2EBEC"/>
<stop offset="1" stop-color="#D2EBEC" stop-opacity="0.36"/>
</linearGradient>
<linearGradient id="paint1_linear" x1="38.8249" y1="102.554" x2="135.577" y2="102.554" gradientUnits="userSpaceOnUse">
<stop stop-color="#09005D"/>
<stop offset="1" stop-color="#1A0F91"/>
</linearGradient>
<linearGradient id="paint2_linear" x1="56.8301" y1="115.984" x2="92.575" y2="115.984" gradientUnits="userSpaceOnUse">
<stop stop-color="#40D5A0"/>
<stop offset="1" stop-color="#3BB6B5"/>
</linearGradient>
<linearGradient id="paint3_linear" x1="79.5137" y1="65.8148" x2="96.0611" y2="65.8148" gradientUnits="userSpaceOnUse">
<stop stop-color="#40D5A0"/>
<stop offset="1" stop-color="#3BB6B5"/>
</linearGradient>
<linearGradient id="paint4_linear" x1="71.9502" y1="84.0924" x2="103.861" y2="84.0924" gradientUnits="userSpaceOnUse">
<stop stop-color="#40D5A0"/>
<stop offset="1" stop-color="#3BB6B5"/>
</linearGradient>
<linearGradient id="paint5_linear" x1="58.3916" y1="133.613" x2="62.6987" y2="133.613" gradientUnits="userSpaceOnUse">
<stop stop-color="#40D5A0"/>
<stop offset="1" stop-color="#3BB6B5"/>
</linearGradient>
<linearGradient id="paint6_linear" x1="66.3018" y1="133.71" x2="70.5722" y2="133.71" gradientUnits="userSpaceOnUse">
<stop stop-color="#40D5A0"/>
<stop offset="1" stop-color="#3BB6B5"/>
</linearGradient>
<linearGradient id="paint7_linear" x1="74.708" y1="133.844" x2="79.0151" y2="133.844" gradientUnits="userSpaceOnUse">
<stop stop-color="#40D5A0"/>
<stop offset="1" stop-color="#3BB6B5"/>
</linearGradient>
<linearGradient id="paint8_linear" x1="91.4434" y1="134.042" x2="95.7138" y2="134.042" gradientUnits="userSpaceOnUse">
<stop stop-color="#40D5A0"/>
<stop offset="1" stop-color="#3BB6B5"/>
</linearGradient>
<linearGradient id="paint9_linear" x1="99.8496" y1="134.176" x2="104.157" y2="134.176" gradientUnits="userSpaceOnUse">
<stop stop-color="#40D5A0"/>
<stop offset="1" stop-color="#3BB6B5"/>
</linearGradient>
<linearGradient id="paint10_linear" x1="82.6182" y1="133.934" x2="86.889" y2="133.934" gradientUnits="userSpaceOnUse">
<stop stop-color="#40D5A0"/>
<stop offset="1" stop-color="#3BB6B5"/>
</linearGradient>
</defs>
</svg>
