
<svg width="182" height="181" viewBox="0 0 182 181" fill="none" xmlns="http://www.w3.org/2000/svg">
<path d="M160.133 155.451C156.416 159.329 152.896 161.83 150.116 163.811C117.436 187.046 78.7703 180.271 70.5494 178.615C58.4148 176.172 34.9585 171.45 17.9988 151.69C-7.66025 121.79 -3.66127 74.6887 16.2353 43.5999C19.8737 37.9096 39.1082 6.34661 78.1868 1.2864C101.84 -1.77961 129.413 4.40437 149.382 20.9751C191.299 55.7665 188.31 126.057 160.133 155.451Z" fill="url(#paint0_linear)"/>
<path d="M173.924 70.8658C173.918 69.8995 172.608 69.5852 172.159 70.4449C167.821 78.7152 155.771 100.04 142.063 109.846C119.751 125.812 100.922 155.336 109.059 174.331C109.065 174.325 174.624 175.867 173.924 70.8658Z" fill="#89DDC1"/>
<path opacity="0.43" d="M169.538 83.0367C169.455 83.3213 169.365 83.5465 169.275 83.7955L169 84.5188L168.437 85.9595C168.054 86.9199 167.66 87.8685 167.265 88.823C166.469 90.726 165.643 92.6172 164.806 94.5025C163.118 98.2672 161.329 101.99 159.486 105.684C157.65 109.383 155.705 113.029 153.683 116.628C151.66 120.233 149.584 123.807 147.388 127.311C143.014 134.331 138.252 141.119 133.022 147.545C130.378 150.729 127.643 153.853 124.73 156.806C121.798 159.74 118.74 162.551 115.491 165.13C115.42 165.183 115.318 165.177 115.258 165.106C115.204 165.035 115.21 164.94 115.276 164.881C118.411 162.189 121.397 159.337 124.233 156.343C127.081 153.355 129.744 150.213 132.328 147C134.907 143.787 137.354 140.473 139.73 137.105C142.099 133.738 144.331 130.27 146.539 126.795C150.924 119.823 154.939 112.62 158.744 105.316C160.641 101.658 162.46 97.9648 164.219 94.2357C165.099 92.3742 165.96 90.5067 166.804 88.6214L168.042 85.7935L168.647 84.3706L168.94 83.6592C169.03 83.422 169.137 83.173 169.209 82.9655L169.221 82.93C169.251 82.847 169.341 82.7995 169.425 82.8292C169.514 82.8648 169.562 82.9537 169.538 83.0367Z" fill="white"/>
<path d="M147.538 30.0774C147.269 29.1941 145.982 29.2593 145.803 30.1663C144.104 38.9228 138.922 61.736 129.056 74.435C112.991 95.1079 103.854 127.276 116.545 142.489C116.545 142.489 177.089 126.18 147.538 30.0774Z" fill="#88B8BA"/>
<path opacity="0.43" d="M146.868 42.4259C146.868 42.7105 146.85 42.9417 146.838 43.1907L146.79 43.9318L146.67 45.408C146.586 46.3921 146.485 47.3704 146.383 48.3545C146.173 50.3169 145.94 52.2733 145.695 54.2297C145.186 58.1426 144.57 62.0376 143.9 65.9208C143.23 69.81 142.452 73.6754 141.59 77.529C140.729 81.3766 139.807 85.2183 138.76 89.0245C136.684 96.6427 134.183 104.154 131.155 111.464C129.606 115.104 127.954 118.703 126.1 122.195C124.221 125.675 122.187 129.084 119.919 132.327C119.871 132.398 119.769 132.416 119.698 132.368C119.626 132.321 119.608 132.226 119.656 132.155C121.792 128.841 123.736 125.414 125.513 121.904C127.302 118.401 128.882 114.79 130.36 111.15C131.838 107.504 133.172 103.804 134.422 100.075C135.667 96.3462 136.756 92.5638 137.827 88.7814C139.933 81.1988 141.626 73.5094 143.11 65.7845C143.84 61.9191 144.498 58.0358 145.079 54.1467C145.372 52.2021 145.653 50.2516 145.904 48.3011L146.263 45.3724L146.425 43.9081L146.497 43.1729C146.515 42.9299 146.544 42.6749 146.55 42.4615V42.4259C146.556 42.337 146.628 42.2718 146.718 42.2777C146.802 42.2718 146.868 42.3429 146.868 42.4259Z" fill="white"/>
<path d="M13.7009 80.3984C13.7049 79.7519 14.5816 79.5416 14.8818 80.1168C17.7841 85.6502 25.8465 99.918 35.0178 106.479C49.9457 117.161 62.5437 136.914 57.0994 149.623C57.0954 149.619 13.2325 150.651 13.7009 80.3984Z" fill="#89DDC1"/>
<path opacity="0.43" d="M16.6354 88.5413C16.6914 88.7316 16.7515 88.8824 16.8115 89.049L16.9957 89.5329L17.372 90.4968C17.6282 91.1394 17.8924 91.774 18.1566 92.4126C18.689 93.6859 19.2414 94.9512 19.8019 96.2126C20.9308 98.7314 22.1277 101.222 23.3607 103.694C24.5897 106.169 25.8907 108.608 27.2438 111.016C28.5969 113.428 29.986 115.819 31.4552 118.164C34.3815 122.86 37.568 127.402 41.0668 131.702C42.8362 133.832 44.6657 135.922 46.6152 137.897C48.5768 139.861 50.6224 141.741 52.7961 143.466C52.8442 143.502 52.9122 143.498 52.9522 143.451C52.9883 143.403 52.9843 143.34 52.9402 143.3C50.8426 141.499 48.845 139.591 46.9475 137.588C45.042 135.589 43.2605 133.487 41.5312 131.337C39.8058 129.187 38.1685 126.969 36.5792 124.716C34.994 122.463 33.5008 120.143 32.0236 117.819C29.0893 113.154 26.4031 108.334 23.8571 103.448C22.5881 101 21.3711 98.5291 20.1942 96.0341C19.6057 94.7886 19.0293 93.5391 18.4648 92.2778L17.6362 90.3857L17.2318 89.4337L17.0357 88.9577C16.9756 88.7991 16.9036 88.6325 16.8555 88.4937L16.8475 88.4699C16.8275 88.4143 16.7675 88.3826 16.7114 88.4024C16.6514 88.4262 16.6194 88.4857 16.6354 88.5413Z" fill="white"/>
<path d="M107.285 75.8886C106.49 75.8886 105.845 75.2438 105.845 74.4485V67.068C105.845 66.3732 105.28 65.8079 104.585 65.8079H97.2047C96.4094 65.8079 95.7646 65.1631 95.7646 64.3678C95.7646 63.5725 96.4094 62.9277 97.2047 62.9277H104.585C106.868 62.9277 108.726 64.7851 108.726 67.068V74.4485C108.726 75.2438 108.081 75.8886 107.285 75.8886Z" fill="#958ED5"/>
<path d="M64.0827 75.8886C63.2873 75.8886 62.6426 75.2438 62.6426 74.4485V67.068C62.6426 64.7851 64.4999 62.9277 66.7829 62.9277H74.1634C74.9588 62.9277 75.6035 63.5725 75.6035 64.3678C75.6035 65.1631 74.9588 65.8079 74.1634 65.8079H66.7829C66.088 65.8079 65.5228 66.3732 65.5228 67.068V74.4485C65.5228 75.2438 64.8781 75.8886 64.0827 75.8886Z" fill="#958ED5"/>
<path d="M74.1634 109.01H66.7829C64.4999 109.01 62.6426 107.152 62.6426 104.869V97.4889C62.6426 96.6936 63.2873 96.0488 64.0827 96.0488C64.8781 96.0488 65.5228 96.6936 65.5228 97.4889V104.869C65.5228 105.564 66.088 106.13 66.7829 106.13H74.1634C74.9588 106.13 75.6035 106.774 75.6035 107.57C75.6035 108.365 74.9588 109.01 74.1634 109.01Z" fill="#958ED5"/>
<path d="M104.585 109.01H97.2047C96.4094 109.01 95.7646 108.365 95.7646 107.57C95.7646 106.774 96.4094 106.13 97.2047 106.13H104.585C105.28 106.13 105.845 105.564 105.845 104.869V97.4889C105.845 96.6936 106.49 96.0488 107.285 96.0488C108.081 96.0488 108.726 96.6936 108.726 97.4889V104.869C108.726 107.152 106.868 109.01 104.585 109.01Z" fill="#958ED5"/>
<path d="M80.1041 84.5286H72.5436C70.2607 84.5286 68.4033 82.6712 68.4033 80.3883V72.8278C68.4033 70.5449 70.2607 68.6875 72.5436 68.6875H80.1041C82.3871 68.6875 84.2444 70.5449 84.2444 72.8278V80.3883C84.2444 82.6712 82.3871 84.5286 80.1041 84.5286ZM72.5436 71.5677C71.8488 71.5677 71.2835 72.1329 71.2835 72.8278V80.3883C71.2835 81.0832 71.8488 81.6484 72.5436 81.6484H80.1041C80.799 81.6484 81.3642 81.0832 81.3642 80.3883V72.8278C81.3642 72.1329 80.799 71.5677 80.1041 71.5677H72.5436Z" fill="#958ED5"/>
<path d="M80.1041 103.251H72.5436C70.2607 103.251 68.4033 101.394 68.4033 99.111V91.5504C68.4033 89.2675 70.2607 87.4102 72.5436 87.4102H80.1041C82.3871 87.4102 84.2444 89.2675 84.2444 91.5504V99.111C84.2444 101.394 82.3871 103.251 80.1041 103.251ZM72.5436 90.2904C71.8488 90.2904 71.2835 90.8556 71.2835 91.5504V99.111C71.2835 99.8058 71.8488 100.371 72.5436 100.371H80.1041C80.799 100.371 81.3642 99.8058 81.3642 99.111V91.5504C81.3642 90.8556 80.799 90.2904 80.1041 90.2904H72.5436Z" fill="#958ED5"/>
<path d="M98.8248 84.5286H91.2643C88.9814 84.5286 87.124 82.6712 87.124 80.3883V72.8278C87.124 70.5449 88.9814 68.6875 91.2643 68.6875H98.8248C101.108 68.6875 102.965 70.5449 102.965 72.8278V80.3883C102.965 82.6712 101.108 84.5286 98.8248 84.5286ZM91.2643 71.5677C90.5695 71.5677 90.0042 72.1329 90.0042 72.8278V80.3883C90.0042 81.0832 90.5695 81.6484 91.2643 81.6484H98.8248C99.5197 81.6484 100.085 81.0832 100.085 80.3883V72.8278C100.085 72.1329 99.5197 71.5677 98.8248 71.5677H91.2643Z" fill="#958ED5"/>
<path d="M100.625 94.6107H97.2047V89.7503C97.2047 88.46 96.155 87.4102 94.8646 87.4102H89.4642C88.1738 87.4102 87.124 88.46 87.124 89.7503V95.1507C87.124 96.441 88.1738 97.4909 89.4642 97.4909H94.3245V100.911C94.3245 102.201 95.3743 103.251 96.6647 103.251H100.625C101.915 103.251 102.965 102.201 102.965 100.911V96.9508C102.965 95.6605 101.915 94.6107 100.625 94.6107ZM90.0042 90.2904H94.3245V94.6107H90.0042V90.2904ZM100.085 100.371H97.2047V97.4909H100.085V100.371Z" fill="#958ED5"/>
<path d="M77.0433 78.7695H75.6032C74.8078 78.7695 74.1631 78.1247 74.1631 77.3294V75.8893C74.1631 75.094 74.8078 74.4492 75.6032 74.4492H77.0433C77.8387 74.4492 78.4834 75.094 78.4834 75.8893V77.3294C78.4834 78.1247 77.8387 78.7695 77.0433 78.7695Z" fill="#958ED5"/>
<path d="M95.765 78.7695H94.3249C93.5295 78.7695 92.8848 78.1247 92.8848 77.3294V75.8893C92.8848 75.094 93.5295 74.4492 94.3249 74.4492H95.765C96.5604 74.4492 97.2051 75.094 97.2051 75.8893V77.3294C97.2051 78.1247 96.5604 78.7695 95.765 78.7695Z" fill="#958ED5"/>
<path d="M77.0433 97.4902H75.6032C74.8078 97.4902 74.1631 96.8454 74.1631 96.0501V94.61C74.1631 93.8147 74.8078 93.1699 75.6032 93.1699H77.0433C77.8387 93.1699 78.4834 93.8147 78.4834 94.61V96.0501C78.4834 96.8454 77.8387 97.4902 77.0433 97.4902Z" fill="#958ED5"/>
<path fill-rule="evenodd" clip-rule="evenodd" d="M39.0608 167.899C38.1753 140.023 40.0301 61.3449 40.5985 38.5376C40.6883 34.8086 43.638 31.7613 47.3955 31.5182C68.2233 30.1784 110.872 34.0675 126.925 35.6564C130.647 36.0239 133.573 38.9704 133.89 42.6639C136.522 73.5103 135.416 140.847 134.913 164.787C134.811 169.767 130.814 173.798 125.794 174.005C101.676 175.007 59.2664 173.798 44.5236 173.318C41.5439 173.223 39.1566 170.851 39.0608 167.899ZM44.051 149.432C43.2433 126.453 45.7802 64.3093 46.5879 45.6284C46.7256 42.3914 49.3223 39.8006 52.5832 39.6346C69.9586 38.692 108.694 41.8875 123.778 43.2273C127.428 43.5475 130.258 46.5117 130.384 50.1341C131.155 72.8524 128.182 130.715 127.147 149.776C126.943 153.428 124.053 156.38 120.374 156.67C99.9228 158.295 64.1668 156.51 50.2258 155.704C46.8392 155.508 44.1707 152.793 44.051 149.432Z" fill="url(#paint1_linear)"/>
<path opacity="0.5" d="M77.0312 35.5025C77.0312 36.202 77.5817 36.7771 78.2877 36.8186C81.77 36.9965 91.5766 37.5123 95.9623 37.7613C96.8239 37.8087 97.506 37.0439 97.3385 36.1961L97.3086 36.0538C97.1949 35.4788 96.7162 35.046 96.1299 34.9926C93.1681 34.7258 84.2231 33.9788 78.2997 34.1863C77.5937 34.216 77.0312 34.797 77.0312 35.5025Z" fill="white"/>
<defs>
<linearGradient id="paint0_linear" x1="204.672" y1="234.021" x2="44.5728" y2="33.3538" gradientUnits="userSpaceOnUse">
<stop stop-color="#D2EBEC"/>
<stop offset="1" stop-color="#D2EBEC" stop-opacity="0.36"/>
</linearGradient>
<linearGradient id="paint1_linear" x1="38.8249" y1="102.82" x2="135.577" y2="102.82" gradientUnits="userSpaceOnUse">
<stop stop-color="#09005D"/>
<stop offset="1" stop-color="#1A0F91"/>
</linearGradient>
</defs>
</svg>
