<svg width="14" height="14" viewBox="0 0 14 14" fill="none" xmlns="http://www.w3.org/2000/svg">
<path d="M12.5602 1.5144L11.5953 0.549561C11.2906 0.244873 10.859 0.0671387 10.4528 0.0671387C10.0465 0.0671387 9.61487 0.244873 9.31018 0.549561L0.347289 9.51245L0.0426015 12.407C-0.00817976 12.7625 0.271117 13.0671 0.626586 13.0671C0.651977 13.0671 0.677367 13.0671 0.702758 13.0671L3.59729 12.7625L12.5602 3.79956C13.1949 3.16479 13.1949 2.14917 12.5602 1.5144ZM3.0387 11.5945L1.33752 11.7722L1.51526 10.071L7.38049 4.18042L8.1676 3.39331L9.71643 4.94214L8.92932 5.72925L3.0387 11.5945ZM11.6969 2.93628L10.5797 4.07886L9.03088 2.53003L10.1735 1.41284C10.275 1.31128 10.402 1.28589 10.4528 1.28589C10.5035 1.28589 10.6305 1.31128 10.7321 1.41284L11.6969 2.37769C11.8492 2.53003 11.8492 2.78394 11.6969 2.93628Z" fill="currentColor"/>
</svg>
