<svg width="23" height="19" viewBox="0 0 23 19" fill="none" xmlns="http://www.w3.org/2000/svg">
<path d="M22.1832 3.4289C22.4778 3.4289 22.7725 3.18954 22.7725 2.85443V1.32251C22.7725 1.03528 22.4778 0.748047 22.1832 0.748047H1.36175C1.018 0.748047 0.772461 1.03528 0.772461 1.32251V2.85443C0.772461 3.18954 1.018 3.4289 1.36175 3.4289H22.1832ZM22.1832 11.0885C22.4778 11.0885 22.7725 10.8491 22.7725 10.514V8.98209C22.7725 8.69486 22.4778 8.40762 22.1832 8.40762H1.36175C1.018 8.40762 0.772461 8.69486 0.772461 8.98209V10.514C0.772461 10.8491 1.018 11.0885 1.36175 11.0885H22.1832ZM22.1832 18.748C22.4778 18.748 22.7725 18.5087 22.7725 18.1736V16.6417C22.7725 16.3544 22.4778 16.0672 22.1832 16.0672H1.36175C1.018 16.0672 0.772461 16.3544 0.772461 16.6417V18.1736C0.772461 18.5087 1.018 18.748 1.36175 18.748H22.1832Z" fill="#333333"/>
</svg>
