<svg width="17" height="17" viewBox="0 0 17 17" fill="currentColor" xmlns="http://www.w3.org/2000/svg">
<path d="M13.9484 7.1699C13.542 6.83768 12.9666 6.73136 12.4821 6.89892C12.3523 6.94388 12.2317 7.00692 12.1237 7.08636C11.8483 7.289 11.2368 7.89726 10.7522 8.49926V3.85891C10.7522 3.46449 10.59 3.07899 10.3074 2.80114C10.0267 2.52533 9.65811 2.37658 9.27129 2.38381C9.09565 2.38694 8.92737 2.42178 8.77187 2.48266V2.02941C8.77187 1.60015 8.5954 1.18054 8.28753 0.877972C7.98243 0.578058 7.58319 0.416408 7.16092 0.424123C6.31904 0.438708 5.63169 1.12304 5.6065 1.95962C5.42412 1.87692 5.22606 1.83051 5.02102 1.82436C4.59333 1.81183 4.16973 1.97734 3.85921 2.27882C3.55508 2.57403 3.38752 2.96375 3.38752 3.37505L3.38644 3.81455C3.25516 3.7714 3.11521 3.74777 2.96972 3.74777C2.23548 3.74777 1.63818 4.34507 1.63818 5.07918L1.63867 11.8246L1.63975 11.8565C1.70111 12.7418 1.88638 13.4998 2.19064 14.1095C2.47585 14.6811 2.87376 15.1414 3.3733 15.4774C4.35634 16.139 5.5707 16.2239 6.51878 16.2239C8.38059 16.2239 10.0555 15.2982 10.8932 13.8073C10.9951 13.6431 11.2635 13.221 11.5534 12.7657C11.8357 12.3221 12.0984 11.9133 12.33 11.5526C12.4573 11.3544 12.5731 11.174 12.6736 11.0168C13.0482 10.4311 13.4473 9.86322 13.86 9.32885C14.0131 9.13067 14.0603 9.07691 14.071 9.0651C14.2642 8.85427 14.386 8.59618 14.4231 8.31857C14.4816 7.88304 14.3085 7.46427 13.9484 7.1699ZM13.5046 8.19561C13.4926 8.28433 13.4522 8.36847 13.3878 8.43887C13.3541 8.47564 13.294 8.54555 13.1267 8.76229C12.6972 9.31824 12.282 9.90879 11.8928 10.5175C11.7925 10.6744 11.6771 10.854 11.5501 11.0518C11.318 11.4132 11.055 11.8229 10.7716 12.268C10.4749 12.734 10.2003 13.1657 10.0998 13.328L10.0893 13.3459C9.41703 14.5494 8.04897 15.297 6.5189 15.297C5.70245 15.297 4.66577 15.2301 3.89079 14.7086C3.10002 14.1765 2.66655 13.2279 2.56553 11.8083L2.56505 5.0793C2.56505 4.85617 2.74659 4.67463 2.96972 4.67463C3.19417 4.67463 3.37679 4.85617 3.37679 5.0793V7.60362C3.37679 7.61109 3.37764 7.61832 3.37788 7.6258C3.37836 7.634 3.37836 7.64231 3.3792 7.65051C3.37993 7.65786 3.38137 7.66498 3.38246 7.67221C3.38366 7.68028 3.38451 7.68848 3.38608 7.69656C3.38764 7.70379 3.38981 7.7109 3.39162 7.71802C3.39355 7.72561 3.39512 7.73344 3.39753 7.74092C3.3997 7.74815 3.40259 7.75514 3.40524 7.76213C3.40777 7.76925 3.41006 7.77648 3.41308 7.78347C3.41597 7.79046 3.41947 7.79709 3.42272 7.80384C3.42598 7.81059 3.42899 7.81746 3.43248 7.82409C3.43598 7.8306 3.4402 7.83687 3.44406 7.84326C3.44791 7.84965 3.45153 7.85616 3.45563 7.86231C3.45985 7.86845 3.46455 7.87424 3.46901 7.88015C3.47347 7.88617 3.47757 7.89232 3.48227 7.89799C3.48697 7.90365 3.49215 7.90884 3.49698 7.91426C3.50204 7.91981 3.50686 7.92571 3.51216 7.93102C3.51735 7.93608 3.52277 7.94066 3.5282 7.9456C3.53374 7.95067 3.53917 7.95609 3.54507 7.96091C3.55062 7.96549 3.55652 7.96959 3.56231 7.97393C3.56846 7.97851 3.57437 7.98333 3.58063 7.98767C3.58654 7.99165 3.59281 7.99503 3.59884 7.99864C3.60547 8.00274 3.61198 8.00708 3.61885 8.01094C3.62511 8.01431 3.63174 8.01709 3.63813 8.02022C3.64512 8.02372 3.65212 8.02733 3.65935 8.03047C3.66598 8.03336 3.67309 8.03553 3.67984 8.03806C3.68719 8.04071 3.69443 8.04373 3.7019 8.04614C3.70901 8.04831 3.71649 8.04987 3.72372 8.0518C3.73131 8.05373 3.73867 8.05602 3.74626 8.05759C3.75398 8.05916 3.76169 8.06 3.76941 8.0612C3.77712 8.06229 3.78459 8.06386 3.79231 8.0647C3.80002 8.06542 3.80798 8.06554 3.81582 8.06591C3.82353 8.06627 3.83125 8.06711 3.83908 8.06711H3.84029C3.85632 8.06711 3.87211 8.06627 3.88766 8.0647C3.89441 8.0641 3.90104 8.06265 3.90779 8.06169C3.91635 8.06048 3.92515 8.05952 3.93359 8.05771C3.94251 8.0559 3.95107 8.05337 3.95975 8.05108C3.96577 8.04939 3.97204 8.04819 3.97795 8.04638C3.98759 8.04336 3.99699 8.03963 4.0064 8.03601C4.01098 8.0342 4.01592 8.03276 4.0205 8.03083C4.0299 8.02685 4.03882 8.02215 4.04786 8.01769C4.0522 8.01552 4.05666 8.01371 4.061 8.01142C4.06944 8.00684 4.0774 8.00153 4.08547 7.99647C4.09005 7.9937 4.09475 7.99117 4.09909 7.98815C4.10657 7.98321 4.11368 7.97755 4.12079 7.972C4.12549 7.96851 4.13032 7.96525 4.13478 7.96151C4.14141 7.95621 4.14743 7.95018 4.1537 7.9444C4.1584 7.94018 4.16322 7.93608 4.1678 7.93174C4.17359 7.92595 4.17877 7.91969 4.1842 7.91366C4.18866 7.90872 4.19348 7.90389 4.1977 7.89883C4.20252 7.89292 4.20686 7.88666 4.21144 7.88051C4.21578 7.87472 4.22036 7.86918 4.22434 7.86315C4.22856 7.857 4.23205 7.85061 4.23591 7.84422C4.23977 7.83784 4.24399 7.83157 4.24761 7.82506C4.2511 7.81855 4.25399 7.8118 4.25725 7.80517C4.2605 7.7983 4.26412 7.79155 4.26713 7.78456C4.27003 7.77781 4.2722 7.77069 4.27473 7.76382C4.2775 7.75659 4.28039 7.74948 4.2828 7.742C4.28497 7.73489 4.28654 7.72766 4.28835 7.72043C4.29028 7.71283 4.29257 7.70536 4.29426 7.69764C4.2957 7.69041 4.29655 7.68282 4.29763 7.67534C4.29896 7.66751 4.3004 7.65967 4.30125 7.65172C4.30209 7.64424 4.30209 7.63653 4.30245 7.62893C4.30293 7.62086 4.30378 7.61302 4.30378 7.60494L4.31451 3.37625C4.31451 3.21665 4.38213 3.06308 4.50485 2.94386C4.63672 2.81596 4.81513 2.74532 4.99365 2.75087C5.32804 2.76087 5.60011 3.05175 5.60011 3.4L5.60542 7.57915C5.60542 7.58759 5.60626 7.59578 5.60674 7.60398C5.6071 7.61133 5.6071 7.61893 5.60783 7.62616C5.60867 7.63484 5.61036 7.64316 5.61168 7.6516C5.61277 7.65847 5.61349 7.66546 5.61482 7.67221C5.61675 7.68137 5.6194 7.69029 5.62181 7.69921C5.62338 7.705 5.62458 7.7109 5.62627 7.71657C5.62928 7.72621 5.63314 7.73561 5.63676 7.74502C5.63857 7.74972 5.63989 7.75454 5.64182 7.75912C5.64616 7.76913 5.6511 7.77889 5.65604 7.78853C5.65797 7.79215 5.65942 7.79601 5.66135 7.7995C5.66677 7.80951 5.67292 7.81903 5.67895 7.82843C5.68088 7.83157 5.68256 7.8347 5.68461 7.83772C5.691 7.84724 5.69799 7.85616 5.70499 7.86508C5.70715 7.86785 5.70908 7.87074 5.71125 7.8734C5.71909 7.88292 5.72753 7.89184 5.73609 7.90064C5.73789 7.90257 5.73934 7.9045 5.74115 7.9063C5.74995 7.9151 5.75935 7.9233 5.76887 7.93138C5.77068 7.93295 5.77225 7.93463 5.77406 7.9362C5.78358 7.94404 5.79346 7.95115 5.80347 7.95814C5.80564 7.95971 5.80757 7.96139 5.80974 7.96284C5.81986 7.96971 5.83047 7.97586 5.84108 7.98189C5.84337 7.98321 5.84554 7.98478 5.84795 7.98611C5.85904 7.99201 5.87049 7.99732 5.88206 8.0025C5.88423 8.00346 5.88628 8.00467 5.88845 8.00563C5.90027 8.01058 5.91244 8.01479 5.92474 8.01889C5.92691 8.0195 5.92884 8.02046 5.93101 8.02118C5.94318 8.02492 5.9556 8.02793 5.96801 8.03071C5.97054 8.03119 5.97295 8.03203 5.97549 8.03264C6.00562 8.03878 6.03684 8.04204 6.06879 8.04204C6.07686 8.04204 6.08554 8.04119 6.0935 8.04083C6.10121 8.04035 6.10893 8.04035 6.11652 8.03963C6.12496 8.03866 6.13304 8.0371 6.14136 8.03577C6.14835 8.03468 6.15558 8.03396 6.16257 8.03252C6.17089 8.03083 6.17897 8.02842 6.18716 8.02625C6.19379 8.02444 6.20042 8.02311 6.20693 8.02106C6.21525 8.01853 6.2232 8.01528 6.23128 8.01214C6.23731 8.00985 6.24358 8.00804 6.24948 8.00551C6.2578 8.0019 6.26588 7.99768 6.27395 7.9937C6.27926 7.99105 6.2848 7.98876 6.28999 7.98598C6.29794 7.98165 6.30554 7.97658 6.31325 7.97188C6.31819 7.96875 6.32338 7.96597 6.3282 7.96272C6.33555 7.95778 6.34242 7.95223 6.34941 7.94681C6.35424 7.94319 6.35918 7.93982 6.36388 7.93596C6.37051 7.93053 6.37678 7.92439 6.38317 7.91848C6.38763 7.91438 6.39233 7.9104 6.39679 7.90606C6.4027 7.90004 6.40824 7.89353 6.41391 7.88726C6.41813 7.88256 6.42259 7.8781 6.42668 7.87316C6.43175 7.86689 6.43633 7.86026 6.44103 7.85387C6.44513 7.84832 6.44947 7.84302 6.45332 7.83747C6.45766 7.83109 6.46128 7.82434 6.46526 7.81771C6.46899 7.81156 6.47309 7.80553 6.47647 7.79926C6.48008 7.79263 6.48298 7.78564 6.48623 7.77889C6.48949 7.77214 6.4931 7.76563 6.496 7.75864C6.49877 7.75201 6.50106 7.74502 6.50347 7.73815C6.50624 7.73079 6.50926 7.72356 6.51155 7.71609C6.51372 7.70885 6.51528 7.7015 6.51721 7.69415C6.51914 7.68667 6.52143 7.67932 6.52288 7.67173C6.52445 7.66413 6.52529 7.6563 6.52649 7.6487C6.52758 7.64099 6.52915 7.63339 6.52987 7.62568C6.53071 7.61784 6.53071 7.60989 6.53108 7.60193C6.53156 7.5941 6.53228 7.5865 6.53228 7.57855V2.00723C6.53228 1.65138 6.82159 1.35701 7.17707 1.35087C7.34861 1.34846 7.51158 1.41476 7.63803 1.53904C7.76967 1.66838 7.84513 1.84715 7.84513 2.02941V7.6041C7.84513 7.61254 7.84597 7.62074 7.84645 7.62905C7.84682 7.63641 7.84682 7.64388 7.84754 7.65123C7.84838 7.65943 7.85007 7.66739 7.85128 7.67546C7.85248 7.68282 7.8532 7.69017 7.85465 7.69728C7.85634 7.70536 7.85875 7.71319 7.8608 7.72115C7.86261 7.72802 7.86393 7.73489 7.8661 7.74164C7.86875 7.7502 7.87213 7.75852 7.87526 7.76684C7.87743 7.77262 7.87924 7.77853 7.88165 7.78419C7.88539 7.79287 7.88973 7.80119 7.89395 7.80963C7.89636 7.81457 7.89853 7.81975 7.90118 7.8247C7.90576 7.83326 7.91107 7.84133 7.91625 7.84953C7.91902 7.85387 7.92143 7.85857 7.92445 7.86291C7.92999 7.87111 7.93614 7.87894 7.94229 7.88678C7.9453 7.89063 7.94795 7.89473 7.95109 7.89847C7.95784 7.90679 7.96531 7.9145 7.97266 7.92234C7.97556 7.92523 7.97809 7.92849 7.98098 7.93138C7.98858 7.93909 7.99677 7.94608 8.00497 7.9532C8.00798 7.95585 8.01076 7.95874 8.01389 7.96127C8.02305 7.96887 8.03269 7.97574 8.04234 7.98261C8.04475 7.9843 8.04704 7.98623 8.04957 7.98803C8.05994 7.99503 8.07079 8.00141 8.08176 8.00756C8.08381 8.00865 8.08561 8.01009 8.08766 8.01118C8.09972 8.01769 8.11201 8.02347 8.12467 8.02902L8.12817 8.03071C8.1413 8.03625 8.15481 8.04107 8.16855 8.04541L8.17084 8.04626C8.19965 8.0553 8.22966 8.06145 8.26064 8.0647C8.27619 8.06627 8.29259 8.06711 8.30862 8.06711C8.31682 8.06711 8.32538 8.06627 8.33357 8.06591C8.34117 8.06542 8.34876 8.06542 8.35624 8.0647C8.36479 8.06386 8.37311 8.06217 8.38155 8.06084C8.38842 8.05976 8.39541 8.05903 8.40228 8.05759C8.41132 8.05578 8.42 8.05313 8.4288 8.05084C8.43471 8.04927 8.44086 8.04807 8.44664 8.04626C8.45605 8.04324 8.46509 8.03963 8.47425 8.03613C8.47919 8.0342 8.48425 8.03264 8.4892 8.03059C8.49848 8.02661 8.5074 8.02203 8.51644 8.01745C8.52078 8.01528 8.52536 8.01347 8.5297 8.01106C8.5385 8.00624 8.54694 8.00081 8.5555 7.99539C8.55959 7.99286 8.56381 7.99057 8.56791 7.98779C8.57659 7.98201 8.58467 7.9755 8.59286 7.96911C8.59636 7.96646 8.6001 7.96393 8.60359 7.96115C8.61167 7.9544 8.61926 7.94705 8.62698 7.93982C8.63011 7.93692 8.63349 7.93427 8.63638 7.93126C8.64385 7.92378 8.65085 7.91583 8.65772 7.90775C8.66061 7.90462 8.66362 7.9016 8.6664 7.89835C8.67303 7.89027 8.67905 7.88171 8.68508 7.87328C8.68761 7.86966 8.69051 7.86628 8.69304 7.86267C8.6987 7.85423 8.70376 7.84543 8.70883 7.83663C8.71124 7.83253 8.71401 7.82867 8.7163 7.82446C8.72112 7.81554 8.72522 7.80625 8.72944 7.79697C8.73149 7.79263 8.7339 7.78841 8.73571 7.78395C8.73957 7.77491 8.7427 7.76551 8.74596 7.75623C8.74764 7.75129 8.74981 7.74646 8.75138 7.74128C8.75403 7.73248 8.75608 7.7232 8.75837 7.71416C8.7597 7.70837 8.76151 7.70271 8.76271 7.69692C8.76452 7.688 8.7656 7.67872 8.76693 7.66968C8.76777 7.66341 8.7691 7.65726 8.7697 7.65087C8.77067 7.64243 8.77067 7.63375 8.77103 7.62508C8.77139 7.61796 8.77211 7.61097 8.77211 7.60362V3.77851C8.80225 3.51994 9.02176 3.31514 9.28756 3.31055C9.42414 3.30826 9.55601 3.36203 9.65787 3.4622C9.76443 3.56683 9.82555 3.71149 9.82555 3.85891V9.32909L9.82579 9.34982C9.82832 9.6501 10.0255 9.90384 10.3164 9.98123C10.6053 10.058 10.9006 9.93663 11.0524 9.6765L11.0553 9.67131C11.4187 9.03653 12.3898 8.04156 12.6733 7.83301C12.7061 7.80878 12.7438 7.78938 12.7854 7.77491C12.9701 7.71114 13.2016 7.75635 13.362 7.8875C13.4374 7.94934 13.5236 8.05301 13.5046 8.19561Z" fill="currentColor" stroke="currentColor" stroke-width="0.2"/>
</svg>
