<svg width="17" height="17" viewBox="0 0 17 17" fill="none" xmlns="http://www.w3.org/2000/svg">
<path fill-rule="evenodd" clip-rule="evenodd" d="M2.35645 6.9944C2.35645 3.98269 4.87083 1.48727 8.03599 1.48727C11.142 1.48727 13.7155 3.95401 13.7155 6.9944C13.7155 8.69151 13.2361 9.42011 10.9639 12.8732C10.4712 13.622 9.89403 14.4991 9.21923 15.5419C8.65719 16.4024 7.38521 16.4024 6.82317 15.5419C6.20104 14.5805 5.66277 13.76 5.19758 13.0509C2.8316 9.44451 2.35645 8.72024 2.35645 6.9944ZM6.28793 12.1164C6.77319 12.8564 7.35026 13.7364 8.03599 14.7962C8.81668 13.5779 9.45653 12.5974 9.98042 11.7945C11.9974 8.70376 12.2956 8.24668 12.2956 6.9944C12.2956 4.72844 10.3729 2.86405 8.03599 2.86405C5.66951 2.86405 3.77633 4.72844 3.77633 6.9944C3.77633 8.28625 4.09372 8.77026 6.28793 12.1164ZM8.03599 9.28903C6.70485 9.28903 5.66951 8.28513 5.66951 6.9944C5.66951 5.73235 6.70485 4.69976 8.03599 4.69976C9.33755 4.69976 10.4025 5.73235 10.4025 6.9944C10.4025 8.28513 9.33755 9.28903 8.03599 9.28903ZM8.03622 7.9655C8.57104 7.9655 9.0046 7.53194 9.0046 6.99712C9.0046 6.4623 8.57104 6.02874 8.03622 6.02874C7.5014 6.02874 7.06784 6.4623 7.06784 6.99712C7.06784 7.53194 7.5014 7.9655 8.03622 7.9655Z" fill="currentColor"/>
</svg>
