<svg width="33" height="33" viewBox="0 0 33 33" fill="none" xmlns="http://www.w3.org/2000/svg">
<path d="M28.0304 16.6655H18.7308C18.3255 16.6655 17.9966 16.3366 17.9966 15.9313C17.9966 15.526 18.3255 15.1971 18.7308 15.1971H28.0304C28.4357 15.1971 28.7646 15.526 28.7646 15.9313C28.7646 16.3366 28.4357 16.6655 28.0304 16.6655Z" fill="#333333" stroke="#333333" stroke-width="0.3"/>
<path d="M24.3605 20.3368C24.1724 20.3368 23.9846 20.2653 23.8416 20.1215C23.5548 19.8345 23.5548 19.3696 23.8416 19.0828L26.9937 15.9308L23.8416 12.7786C23.5548 12.4918 23.5548 12.0269 23.8416 11.7401C24.1285 11.4531 24.5935 11.4531 24.8803 11.7401L28.5512 15.411C28.838 15.6978 28.838 16.1627 28.5512 16.4495L24.8803 20.1204C24.7363 20.2653 24.5485 20.3368 24.3605 20.3368V20.3368Z" fill="#333333" stroke="#333333" stroke-width="0.3"/>
<path d="M13.1028 29.1479C12.8933 29.1479 12.6945 29.1185 12.4959 29.0568L6.6047 27.0941C5.80312 26.8141 5.27148 26.0672 5.27148 25.2323V7.61199C5.27148 6.53223 6.1496 5.65411 7.22936 5.65411C7.43872 5.65411 7.6375 5.68351 7.83628 5.74517L13.7273 7.70788C14.529 7.98786 15.0605 8.73477 15.0605 9.56968V27.19C15.0605 28.2698 14.1826 29.1479 13.1028 29.1479ZM7.22936 7.12247C6.96014 7.12247 6.73985 7.34276 6.73985 7.61199V25.2323C6.73985 25.4408 6.87983 25.6345 7.07951 25.7041L12.9431 27.658C12.9852 27.6716 13.0401 27.6795 13.1028 27.6795C13.372 27.6795 13.5921 27.4592 13.5921 27.19V9.56968C13.5921 9.36122 13.4522 9.16746 13.2525 9.09792L7.38889 7.14398C7.34676 7.13036 7.29192 7.12247 7.22936 7.12247V7.12247Z" fill="#333333" stroke="#333333" stroke-width="0.3"/>
<path d="M20.2002 13.4845C19.7949 13.4845 19.466 13.1555 19.466 12.7503V8.34519C19.466 7.6707 18.917 7.1215 18.2425 7.1215H7.22979C6.82452 7.1215 6.49561 6.79259 6.49561 6.38732C6.49561 5.98205 6.82452 5.65314 7.22979 5.65314H18.2425C19.7275 5.65314 20.9344 6.86016 20.9344 8.34519V12.7503C20.9344 13.1555 20.6055 13.4845 20.2002 13.4845Z" fill="#333333" stroke="#333333" stroke-width="0.3"/>
<path d="M18.2422 26.21H14.3265C13.9212 26.21 13.5923 25.8811 13.5923 25.4758C13.5923 25.0706 13.9212 24.7416 14.3265 24.7416H18.2422C18.9167 24.7416 19.4657 24.1924 19.4657 23.518V19.1129C19.4657 18.7076 19.7946 18.3787 20.1999 18.3787C20.6052 18.3787 20.9341 18.7076 20.9341 19.1129V23.518C20.9341 25.003 19.7272 26.21 18.2422 26.21V26.21Z" fill="#333333" stroke="#333333" stroke-width="0.3"/>
</svg>
