<svg width="14" height="16" viewBox="0 0 14 16" fill="none" xmlns="http://www.w3.org/2000/svg">
<path d="M9.71684 9.6329C8.859 9.6329 8.47444 10.1124 7.08414 10.1124C5.66425 10.1124 5.2797 9.6329 4.42185 9.6329C2.23286 9.6329 0.458008 11.4611 0.458008 13.6789V14.4281C0.458008 15.2373 1.07921 15.8667 1.87789 15.8667H12.2904C13.0595 15.8667 13.7103 15.2373 13.7103 14.4281V13.6789C13.7103 11.4611 11.9058 9.6329 9.71684 9.6329ZM12.2904 14.4281H1.87789V13.6789C1.87789 12.2403 3.00197 11.0715 4.42185 11.0715C4.86557 11.0715 5.54593 11.551 7.08414 11.551C8.59277 11.551 9.27313 11.0715 9.71684 11.0715C11.1367 11.0715 12.2904 12.2403 12.2904 13.6789V14.4281ZM7.08414 9.15338C9.42103 9.15338 11.3438 7.23529 11.3438 4.83768C11.3438 2.47003 9.42103 0.521973 7.08414 0.521973C4.71766 0.521973 2.82448 2.47003 2.82448 4.83768C2.82448 7.23529 4.71766 9.15338 7.08414 9.15338ZM7.08414 1.96054C8.62235 1.96054 9.92391 3.27923 9.92391 4.83768C9.92391 6.4261 8.62235 7.71481 7.08414 7.71481C5.51635 7.71481 4.24437 6.4261 4.24437 4.83768C4.24437 3.27923 5.51635 1.96054 7.08414 1.96054Z" fill="currentColor"/>
</svg>
