<svg width="35" height="36" viewBox="0 0 35 36" fill="none" xmlns="http://www.w3.org/2000/svg">
<circle cx="17.4277" cy="18.2573" r="16.9077" fill="white"/>
<circle cx="17.4277" cy="18.2573" r="16.9077" fill="url(#paint0_linear)"/>
<circle cx="17.4277" cy="18.2573" r="16.9077" stroke="#EAEAEA"/>
<path d="M20.0606 18.6471C19.2027 18.6471 18.8182 19.1266 17.4279 19.1266C16.008 19.1266 15.6235 18.6471 14.7656 18.6471C12.5766 18.6471 10.8018 20.4752 10.8018 22.693V23.4423C10.8018 24.2515 11.423 24.8809 12.2216 24.8809H22.6341C23.4032 24.8809 24.054 24.2515 24.054 23.4423V22.693C24.054 20.4752 22.2496 18.6471 20.0606 18.6471ZM22.6341 23.4423H12.2216V22.693C12.2216 21.2545 13.3457 20.0856 14.7656 20.0856C15.2093 20.0856 15.8897 20.5652 17.4279 20.5652C18.9365 20.5652 19.6169 20.0856 20.0606 20.0856C21.4805 20.0856 22.6341 21.2545 22.6341 22.693V23.4423ZM17.4279 18.1675C19.7648 18.1675 21.6875 16.2495 21.6875 13.8518C21.6875 11.4842 19.7648 9.53613 17.4279 9.53613C15.0614 9.53613 13.1682 11.4842 13.1682 13.8518C13.1682 16.2495 15.0614 18.1675 17.4279 18.1675ZM17.4279 10.9747C18.9661 10.9747 20.2677 12.2934 20.2677 13.8518C20.2677 15.4403 18.9661 16.729 17.4279 16.729C15.8601 16.729 14.5881 15.4403 14.5881 13.8518C14.5881 12.2934 15.8601 10.9747 17.4279 10.9747Z" fill="white"/>
<defs>
<linearGradient id="paint0_linear" x1="1.02002" y1="17.1313" x2="34.5583" y2="17.1313" gradientUnits="userSpaceOnUse">
<stop stop-color="#3BB6B5"/>
<stop offset="1" stop-color="#40D5A0"/>
</linearGradient>
</defs>
</svg>
