<svg width="25" height="25" viewBox="0 0 25 25" fill="none" xmlns="http://www.w3.org/2000/svg">
<path d="M12.7743 24.5371C11.8416 24.5371 10.9639 24.1732 10.303 23.5138C9.64359 22.8544 9.27973 21.9767 9.27973 21.0426C9.27973 20.7262 9.3228 20.4128 9.40597 20.1114C9.54557 19.6049 10.0698 19.3094 10.5748 19.449C11.0812 19.5886 11.3768 20.1129 11.2372 20.6178C11.1985 20.7559 11.1792 20.8985 11.1792 21.0426C11.1792 21.9218 11.8936 22.6361 12.7728 22.6361C13.652 22.6361 14.3664 21.9218 14.3664 21.0426C14.3664 20.8985 14.3471 20.7544 14.3084 20.6178C14.1688 20.1114 14.4659 19.5886 14.9708 19.449C15.4773 19.3094 16 19.6064 16.1396 20.1114C16.2228 20.4143 16.2659 20.7277 16.2659 21.0426C16.2659 21.9752 15.902 22.8529 15.2426 23.5138C14.5832 24.1747 13.707 24.5371 12.7743 24.5371Z" fill="#333333"/>
<path d="M21.85 20.9341H3.69854C3.17428 20.9341 2.74805 20.5079 2.74805 19.9836C2.74805 18.8742 3.18023 17.8302 3.96438 17.046C4.26735 16.743 4.61488 16.4891 4.99508 16.2916C5.20003 16.1861 5.32626 15.9723 5.32626 15.7346V10.0747C5.32626 9.12127 5.51339 8.19602 5.88171 7.32424C6.23815 6.48216 6.74755 5.7277 7.39508 5.07869C8.04409 4.42968 8.79854 3.92028 9.64062 3.56533C10.5124 3.19701 11.4377 3.00988 12.3911 3.00988H13.156C14.1094 3.00988 15.0347 3.19701 15.9065 3.56533C16.7485 3.92176 17.503 4.43117 18.152 5.07869C18.801 5.7277 19.3104 6.48216 19.6654 7.32424C20.0337 8.19602 20.2208 9.12127 20.2208 10.0747V15.7346C20.2208 15.9708 20.3545 16.1876 20.5713 16.302C21.2322 16.648 21.7891 17.1663 22.1827 17.802C22.5867 18.4569 22.8005 19.2114 22.8005 19.9836C22.8005 20.5094 22.3758 20.9341 21.85 20.9341ZM4.85696 19.0331H20.6901C20.4852 18.5921 20.1391 18.2208 19.6891 17.9861C18.8441 17.5435 18.3198 16.6807 18.3198 15.7361V10.0747C18.3198 7.2277 16.003 4.91087 13.156 4.91087H12.3911C9.54409 4.91087 7.22725 7.2277 7.22725 10.0747V15.7346C7.22725 16.1965 7.1025 16.6495 6.86488 17.0445C6.62428 17.444 6.27973 17.7678 5.86834 17.9802C5.66191 18.0871 5.47329 18.2252 5.30844 18.3901C5.11834 18.5802 4.96686 18.797 4.85696 19.0331Z" fill="#333333"/>
<path d="M12.7743 4.91087C12.25 4.91087 11.8238 4.48463 11.8238 3.96038V1.4876C11.8238 0.963347 12.25 0.537109 12.7743 0.537109C13.2985 0.537109 13.7248 0.963347 13.7248 1.4876V3.96038C13.7248 4.48612 13.2985 4.91087 12.7743 4.91087Z" fill="#333333"/>
</svg>
