<svg width="41" height="37" viewBox="0 0 41 37" fill="none" xmlns="http://www.w3.org/2000/svg">
<path fill-rule="evenodd" clip-rule="evenodd" d="M36.2925 4.33155H29.9524L27.4724 1.63155C26.7324 0.811544 25.6524 0.331543 24.5324 0.331543H16.0524C14.9324 0.331543 13.8524 0.811544 13.0924 1.63155L10.6324 4.33155H4.29237C2.09236 4.33155 0.292358 6.13156 0.292358 8.33156V32.3316C0.292358 34.5316 2.09236 36.3316 4.29237 36.3316H36.2925C38.4925 36.3316 40.2925 34.5316 40.2925 32.3316V8.33156C40.2925 6.13156 38.4925 4.33155 36.2925 4.33155ZM10.2924 20.3316C10.2924 25.8516 14.7724 30.3316 20.2924 30.3316C25.8124 30.3316 30.2924 25.8516 30.2924 20.3316C30.2924 14.8116 25.8124 10.3316 20.2924 10.3316C14.7724 10.3316 10.2924 14.8116 10.2924 20.3316Z" fill="white"/>
</svg>
