<svg width="17" height="17" viewBox="0 0 17 17" fill="none" xmlns="http://www.w3.org/2000/svg">
<path d="M15.1337 6.28949L11.0523 2.20812C10.8269 1.98271 10.4614 1.98271 10.236 2.20812L8.60372 3.84044C8.37832 4.06585 8.37832 4.43132 8.60372 4.65673L9.0116 5.0646L6.01491 8.06129C4.72755 7.44657 3.13937 7.67214 2.07358 8.73848C1.84825 8.96391 1.84831 9.32928 2.07368 9.55466L4.52311 12.0041C4.51718 12.0095 4.51099 12.0145 4.50525 12.0202L1.61925 14.9062C1.39384 15.1316 1.39384 15.4971 1.61925 15.7225C1.84465 15.9479 2.21013 15.9479 2.43553 15.7225L5.32154 12.8365C5.32727 12.8308 5.33222 12.8246 5.33766 12.8186L7.78736 15.2683C8.01276 15.4937 8.37824 15.4937 8.60364 15.2683C9.67006 14.2019 9.89549 12.6137 9.28043 11.3264L12.2769 8.32993L12.6851 8.7381C12.9105 8.96351 13.2759 8.96351 13.5014 8.7381L15.1337 7.10577C15.3591 6.88037 15.3591 6.51492 15.1337 6.28949ZM8.14412 13.9925L3.34944 9.19784C4.23461 8.67484 5.39416 8.79376 6.15506 9.55466L7.78738 11.187C8.54829 11.9479 8.66722 13.1071 8.14412 13.9925ZM8.60367 10.3706L6.97091 8.73788L9.82788 5.88091L11.4606 7.5137L8.60367 10.3706ZM13.0932 7.51367L12.6856 7.10607C12.6854 7.10588 12.6853 7.10567 12.6851 7.10548L10.2361 4.65643C10.2359 4.65624 10.2356 4.65608 10.2355 4.65589L9.82815 4.24859L10.6442 3.43254L13.9093 6.69763L13.0932 7.51367Z" fill="#333333"/>
</svg>
