<svg width="27" height="27" viewBox="0 0 27 27" fill="none" xmlns="http://www.w3.org/2000/svg">
<path d="M25.2347 10.9847L23.4441 10.6809C23.2576 10.0787 23.0178 9.49785 22.7247 8.94362L23.7799 7.46744C24.2275 6.83859 24.1583 5.9806 23.6094 5.43702L22.0213 3.84893C21.7228 3.5505 21.3285 3.38529 20.9075 3.38529C20.5771 3.38529 20.2626 3.48655 19.9962 3.6784L18.5147 4.73357C17.9391 4.42981 17.337 4.17934 16.7134 3.99282L16.415 2.22353C16.2871 1.46146 15.6316 0.907227 14.8589 0.907227H12.6153C11.8426 0.907227 11.1871 1.46146 11.0592 2.22353L10.7501 4.03545C10.1533 4.22197 9.5724 4.46711 9.01817 4.76555L7.55265 3.71037C7.2862 3.51852 6.96645 3.41727 6.63604 3.41727C6.21504 3.41727 5.81535 3.58247 5.52225 3.8809L3.92884 5.469C3.38526 6.01257 3.31066 6.87057 3.7583 7.49941L4.82413 8.99691C4.53103 9.55647 4.29655 10.1374 4.11536 10.7395L2.34608 11.038C1.58402 11.1659 1.02979 11.8214 1.02979 12.5941V14.8377C1.02979 15.6104 1.58402 16.2659 2.34608 16.3938L4.15799 16.7029C4.34451 17.2998 4.58965 17.8806 4.88808 18.4349L3.83824 19.8951C3.39059 20.5239 3.45987 21.3819 4.00877 21.9255L5.59686 23.5136C5.89529 23.812 6.28965 23.9772 6.71065 23.9772C7.04105 23.9772 7.35547 23.876 7.62193 23.6841L9.11942 22.6183C9.65766 22.9007 10.2226 23.1299 10.8034 23.3111L11.1019 25.1017C11.2298 25.8637 11.8852 26.418 12.658 26.418H14.9069C15.6796 26.418 16.3351 25.8637 16.463 25.1017L16.7667 23.3111C17.3689 23.1245 17.9498 22.8847 18.504 22.5916L19.9802 23.6468C20.2467 23.8386 20.5664 23.9399 20.8968 23.9399C21.3178 23.9399 21.7122 23.7747 22.0106 23.4763L23.5987 21.8882C24.1423 21.3446 24.2169 20.4866 23.7692 19.8578L22.7141 18.3762C23.0072 17.8167 23.2523 17.2358 23.4335 16.6389L25.2241 16.3405C25.9861 16.2126 26.5404 15.5571 26.5404 14.7844V12.5408C26.551 11.7681 25.9968 11.1126 25.2347 10.9847ZM25.1122 14.7844C25.1122 14.8537 25.0642 14.9123 24.9949 14.9229L22.7567 15.296C22.4742 15.344 22.2504 15.5518 22.1811 15.8236C21.9786 16.607 21.6695 17.3584 21.2539 18.0565C21.11 18.3016 21.1206 18.6054 21.2858 18.8399L22.6021 20.6944C22.6394 20.7477 22.6341 20.8277 22.5862 20.8756L20.9981 22.4637C20.9608 22.501 20.9235 22.5064 20.8968 22.5064C20.8648 22.5064 20.8382 22.4957 20.8169 22.4797L18.9677 21.1634C18.7385 20.9982 18.4294 20.9875 18.1843 21.1314C17.4862 21.5471 16.7348 21.8562 15.9514 22.0587C15.6743 22.128 15.4664 22.3571 15.4238 22.6343L15.0454 24.8725C15.0348 24.9418 14.9761 24.9898 14.9069 24.9898H12.6633C12.594 24.9898 12.5354 24.9418 12.5247 24.8725L12.1517 22.6343C12.1037 22.3518 11.8959 22.128 11.6241 22.0587C10.862 21.8615 10.1266 21.5578 9.43917 21.1634C9.32726 21.0995 9.19936 21.0675 9.07679 21.0675C8.9329 21.0675 8.78368 21.1101 8.66111 21.2007L6.79591 22.5277C6.76927 22.5437 6.74262 22.5543 6.71598 22.5543C6.69466 22.5543 6.65203 22.549 6.61472 22.5117L5.02664 20.9236C4.97868 20.8756 4.97335 20.801 5.01065 20.7424L6.32162 18.9038C6.48682 18.6694 6.49748 18.3603 6.3536 18.1151C5.93792 17.4223 5.61817 16.6709 5.41567 15.8875C5.34106 15.6157 5.11724 15.4079 4.84012 15.3599L2.58589 14.9762C2.51662 14.9656 2.46865 14.907 2.46865 14.8377V12.5941C2.46865 12.5248 2.51662 12.4662 2.58589 12.4555L4.80815 12.0825C5.09059 12.0345 5.31974 11.8267 5.38902 11.5496C5.5862 10.7662 5.88996 10.0095 6.3003 9.31133C6.44419 9.06619 6.4282 8.76242 6.263 8.53327L4.93604 6.66806C4.89874 6.61477 4.90407 6.53483 4.95203 6.48687L6.54012 4.89878C6.57742 4.86147 6.61472 4.85614 6.64137 4.85614C6.67334 4.85614 6.69999 4.8668 6.72131 4.88279L8.55986 6.19376C8.79434 6.35897 9.10343 6.36963 9.34857 6.22574C10.0414 5.81006 10.7928 5.49031 11.5762 5.28781C11.8479 5.2132 12.0558 4.98937 12.1037 4.71225L12.4874 2.45802C12.4981 2.38874 12.5567 2.34077 12.626 2.34077H14.8696C14.9388 2.34077 14.9975 2.38874 15.0081 2.45802L15.3812 4.68028C15.4291 4.96273 15.637 5.19188 15.9141 5.26116C16.7188 5.46367 17.4862 5.77809 18.2003 6.19909C18.4454 6.34298 18.7492 6.33232 18.9837 6.16712L20.8222 4.84548C20.8489 4.8295 20.8755 4.81884 20.9021 4.81884C20.9235 4.81884 20.9661 4.82417 21.0034 4.86147L22.5915 6.44956C22.6394 6.49753 22.6448 6.57214 22.6075 6.63076L21.2912 8.47998C21.126 8.70913 21.1153 9.01822 21.2592 9.26337C21.6749 9.96149 21.984 10.7129 22.1865 11.4963C22.2557 11.7734 22.4849 11.9812 22.762 12.0239L25.0003 12.4022C25.0695 12.4129 25.1175 12.4715 25.1175 12.5408V14.7844H25.1122Z" fill="currentColor"/>
<path d="M13.7877 8.1549C10.7501 8.1549 8.28274 10.6223 8.28274 13.6599C8.28274 16.6976 10.7501 19.165 13.7877 19.165C16.8254 19.165 19.2927 16.6976 19.2927 13.6599C19.2927 10.6223 16.8254 8.1549 13.7877 8.1549ZM13.7877 17.7261C11.5442 17.7261 9.72161 15.9035 9.72161 13.6599C9.72161 11.4164 11.5442 9.59378 13.7877 9.59378C16.0313 9.59378 17.8539 11.4164 17.8539 13.6599C17.8539 15.9035 16.0313 17.7261 13.7877 17.7261Z" fill="currentColor"/>
<path d="M25.2347 10.9847L23.4441 10.6809C23.2576 10.0787 23.0178 9.49785 22.7247 8.94362L23.7799 7.46744C24.2275 6.83859 24.1583 5.9806 23.6094 5.43702L22.0213 3.84893C21.7228 3.5505 21.3285 3.38529 20.9075 3.38529C20.5771 3.38529 20.2626 3.48655 19.9962 3.6784L18.5147 4.73357C17.9391 4.42981 17.337 4.17934 16.7134 3.99282L16.415 2.22353C16.2871 1.46146 15.6316 0.907227 14.8589 0.907227H12.6153C11.8426 0.907227 11.1871 1.46146 11.0592 2.22353L10.7501 4.03545C10.1533 4.22197 9.5724 4.46711 9.01817 4.76555L7.55265 3.71037C7.2862 3.51852 6.96645 3.41727 6.63604 3.41727C6.21504 3.41727 5.81535 3.58247 5.52225 3.8809L3.92884 5.469C3.38526 6.01257 3.31066 6.87057 3.7583 7.49941L4.82413 8.99691C4.53103 9.55647 4.29655 10.1374 4.11536 10.7395L2.34608 11.038C1.58402 11.1659 1.02979 11.8214 1.02979 12.5941V14.8377C1.02979 15.6104 1.58402 16.2659 2.34608 16.3938L4.15799 16.7029C4.34451 17.2998 4.58965 17.8806 4.88808 18.4349L3.83824 19.8951C3.39059 20.5239 3.45987 21.3819 4.00877 21.9255L5.59686 23.5136C5.89529 23.812 6.28965 23.9772 6.71065 23.9772C7.04105 23.9772 7.35547 23.876 7.62193 23.6841L9.11942 22.6183C9.65766 22.9007 10.2226 23.1299 10.8034 23.3111L11.1019 25.1017C11.2298 25.8637 11.8852 26.418 12.658 26.418H14.9069C15.6796 26.418 16.3351 25.8637 16.463 25.1017L16.7667 23.3111C17.3689 23.1245 17.9498 22.8847 18.504 22.5916L19.9802 23.6468C20.2467 23.8386 20.5664 23.9399 20.8968 23.9399C21.3178 23.9399 21.7122 23.7747 22.0106 23.4763L23.5987 21.8882C24.1423 21.3446 24.2169 20.4866 23.7692 19.8578L22.7141 18.3762C23.0072 17.8167 23.2523 17.2358 23.4335 16.6389L25.2241 16.3405C25.9861 16.2126 26.5404 15.5571 26.5404 14.7844V12.5408C26.551 11.7681 25.9968 11.1126 25.2347 10.9847ZM25.1122 14.7844C25.1122 14.8537 25.0642 14.9123 24.9949 14.9229L22.7567 15.296C22.4742 15.344 22.2504 15.5518 22.1811 15.8236C21.9786 16.607 21.6695 17.3584 21.2539 18.0565C21.11 18.3016 21.1206 18.6054 21.2858 18.8399L22.6021 20.6944C22.6394 20.7477 22.6341 20.8277 22.5862 20.8756L20.9981 22.4637C20.9608 22.501 20.9235 22.5064 20.8968 22.5064C20.8648 22.5064 20.8382 22.4957 20.8169 22.4797L18.9677 21.1634C18.7385 20.9982 18.4294 20.9875 18.1843 21.1314C17.4862 21.5471 16.7348 21.8562 15.9514 22.0587C15.6743 22.128 15.4664 22.3571 15.4238 22.6343L15.0454 24.8725C15.0348 24.9418 14.9761 24.9898 14.9069 24.9898H12.6633C12.594 24.9898 12.5354 24.9418 12.5247 24.8725L12.1517 22.6343C12.1037 22.3518 11.8959 22.128 11.6241 22.0587C10.862 21.8615 10.1266 21.5578 9.43917 21.1634C9.32726 21.0995 9.19936 21.0675 9.07679 21.0675C8.9329 21.0675 8.78368 21.1101 8.66111 21.2007L6.79591 22.5277C6.76927 22.5437 6.74262 22.5543 6.71598 22.5543C6.69466 22.5543 6.65203 22.549 6.61472 22.5117L5.02664 20.9236C4.97868 20.8756 4.97335 20.801 5.01065 20.7424L6.32162 18.9038C6.48682 18.6694 6.49748 18.3603 6.3536 18.1151C5.93792 17.4223 5.61817 16.6709 5.41567 15.8875C5.34106 15.6157 5.11724 15.4079 4.84012 15.3599L2.58589 14.9762C2.51662 14.9656 2.46865 14.907 2.46865 14.8377V12.5941C2.46865 12.5248 2.51662 12.4662 2.58589 12.4555L4.80815 12.0825C5.09059 12.0345 5.31974 11.8267 5.38902 11.5496C5.5862 10.7662 5.88996 10.0095 6.3003 9.31133C6.44419 9.06619 6.4282 8.76242 6.263 8.53327L4.93604 6.66806C4.89874 6.61477 4.90407 6.53483 4.95203 6.48687L6.54012 4.89878C6.57742 4.86147 6.61472 4.85614 6.64137 4.85614C6.67334 4.85614 6.69999 4.8668 6.72131 4.88279L8.55986 6.19376C8.79434 6.35897 9.10343 6.36963 9.34857 6.22574C10.0414 5.81006 10.7928 5.49031 11.5762 5.28781C11.8479 5.2132 12.0558 4.98937 12.1037 4.71225L12.4874 2.45802C12.4981 2.38874 12.5567 2.34077 12.626 2.34077H14.8696C14.9388 2.34077 14.9975 2.38874 15.0081 2.45802L15.3812 4.68028C15.4291 4.96273 15.637 5.19188 15.9141 5.26116C16.7188 5.46367 17.4862 5.77809 18.2003 6.19909C18.4454 6.34298 18.7492 6.33232 18.9837 6.16712L20.8222 4.84548C20.8489 4.8295 20.8755 4.81884 20.9021 4.81884C20.9235 4.81884 20.9661 4.82417 21.0034 4.86147L22.5915 6.44956C22.6394 6.49753 22.6448 6.57214 22.6075 6.63076L21.2912 8.47998C21.126 8.70913 21.1153 9.01822 21.2592 9.26337C21.6749 9.96149 21.984 10.7129 22.1865 11.4963C22.2557 11.7734 22.4849 11.9812 22.762 12.0239L25.0003 12.4022C25.0695 12.4129 25.1175 12.4715 25.1175 12.5408V14.7844H25.1122Z" stroke="currentColor" stroke-width="0.4"/>
<path d="M13.7877 8.1549C10.7501 8.1549 8.28274 10.6223 8.28274 13.6599C8.28274 16.6976 10.7501 19.165 13.7877 19.165C16.8254 19.165 19.2927 16.6976 19.2927 13.6599C19.2927 10.6223 16.8254 8.1549 13.7877 8.1549ZM13.7877 17.7261C11.5442 17.7261 9.72161 15.9035 9.72161 13.6599C9.72161 11.4164 11.5442 9.59378 13.7877 9.59378C16.0313 9.59378 17.8539 11.4164 17.8539 13.6599C17.8539 15.9035 16.0313 17.7261 13.7877 17.7261Z" stroke="currentColor" stroke-width="0.4"/>
</svg>
