<svg width="13" height="17" viewBox="0 0 13 17" fill="none" xmlns="http://www.w3.org/2000/svg">
<path d="M3.52789 6.86319C3.9421 6.86319 4.27789 6.5274 4.27789 6.11319C4.27789 5.69898 3.9421 5.36319 3.52789 5.36319V6.86319ZM0.775879 6.11319V5.36319C0.361665 5.36319 0.0258789 5.69898 0.0258789 6.11319H0.775879ZM0.775879 15.9755H0.0258789C0.0258789 16.3897 0.361665 16.7255 0.775879 16.7255L0.775879 15.9755ZM11.2956 15.9755V16.7255C11.7098 16.7255 12.0456 16.3897 12.0456 15.9755H11.2956ZM11.2956 6.11319H12.0456C12.0456 5.69898 11.7098 5.36319 11.2956 5.36319V6.11319ZM8.87237 5.36319C8.45815 5.36319 8.12237 5.69898 8.12237 6.11319C8.12237 6.5274 8.45815 6.86319 8.87237 6.86319V5.36319ZM5.32685 11.2498C5.32685 11.664 5.66264 11.9998 6.07685 11.9998C6.49106 11.9998 6.82685 11.664 6.82685 11.2498H5.32685ZM6.07685 1.58185L6.60718 1.05152C6.31429 0.758625 5.83941 0.758625 5.54652 1.05152L6.07685 1.58185ZM3.57116 3.02688C3.27826 3.31978 3.27826 3.79465 3.57116 4.08754C3.86405 4.38044 4.33892 4.38044 4.63182 4.08754L3.57116 3.02688ZM7.52189 4.08754C7.81478 4.38044 8.28965 4.38044 8.58255 4.08754C8.87544 3.79465 8.87544 3.31978 8.58255 3.02688L7.52189 4.08754ZM3.52789 5.36319H0.775879V6.86319H3.52789V5.36319ZM0.0258789 6.11319V15.9755H1.52588V6.11319H0.0258789ZM0.775879 16.7255H11.2956V15.2255H0.775879V16.7255ZM12.0456 15.9755V6.11319H10.5456V15.9755H12.0456ZM11.2956 5.36319H8.87237V6.86319H11.2956V5.36319ZM6.82685 11.2498V1.58185H5.32685V11.2498H6.82685ZM5.54652 1.05152L3.57116 3.02688L4.63182 4.08754L6.60718 2.11218L5.54652 1.05152ZM5.54652 2.11218L7.52189 4.08754L8.58255 3.02688L6.60718 1.05152L5.54652 2.11218Z" fill="#333333"/>
</svg>
