<svg width="15" height="17" viewBox="0 0 15 17" fill="none" xmlns="http://www.w3.org/2000/svg">
<path d="M8.97363 13.3219H9.72363C9.91113 13.3219 10.0986 13.1656 10.0986 12.9469V6.1969C10.0986 6.0094 9.91113 5.8219 9.72363 5.8219H8.97363C8.75488 5.8219 8.59863 6.0094 8.59863 6.1969V12.9469C8.59863 13.1656 8.75488 13.3219 8.97363 13.3219ZM14.0986 2.8219H11.5049L10.4424 1.0719C10.1924 0.665649 9.62988 0.321899 9.16113 0.321899H6.00488C5.53613 0.321899 4.97363 0.665649 4.72363 1.0719L3.66113 2.8219H1.09863C0.817383 2.8219 0.598633 3.0719 0.598633 3.3219V3.8219C0.598633 4.10315 0.817383 4.3219 1.09863 4.3219H1.59863V14.8219C1.59863 15.6656 2.25488 16.3219 3.09863 16.3219H12.0986C12.9111 16.3219 13.5986 15.6656 13.5986 14.8219V4.3219H14.0986C14.3486 4.3219 14.5986 4.10315 14.5986 3.8219V3.3219C14.5986 3.0719 14.3486 2.8219 14.0986 2.8219ZM5.94238 1.91565C5.97363 1.8844 6.06738 1.8219 6.09863 1.8219H9.06738C9.09863 1.8219 9.19238 1.8844 9.22363 1.91565L9.75488 2.8219H5.41113L5.94238 1.91565ZM12.0986 14.8219H3.09863V4.3219H12.0986V14.8219ZM5.47363 13.3219H6.22363C6.41113 13.3219 6.59863 13.1656 6.59863 12.9469V6.1969C6.59863 6.0094 6.41113 5.8219 6.22363 5.8219H5.47363C5.25488 5.8219 5.09863 6.0094 5.09863 6.1969V12.9469C5.09863 13.1656 5.25488 13.3219 5.47363 13.3219Z" fill="currentColor"/>
</svg>
