<svg width="41" height="37" viewBox="0 0 41 37" fill="none" xmlns="http://www.w3.org/2000/svg">
<path fill-rule="evenodd" clip-rule="evenodd" d="M36.5224 4.86251H30.1766L27.6944 2.16007C26.9537 1.33932 25.8727 0.858887 24.7517 0.858887H16.264C15.143 0.858887 14.062 1.33932 13.3014 2.16007L10.8391 4.86251H4.49337C2.29138 4.86251 0.489746 6.66415 0.489746 8.86614V32.8879C0.489746 35.0899 2.29138 36.8915 4.49337 36.8915H36.5224C38.7244 36.8915 40.526 35.0899 40.526 32.8879V8.86614C40.526 6.66415 38.7244 4.86251 36.5224 4.86251ZM10.4988 20.877C10.4988 26.402 14.9829 30.8861 20.5079 30.8861C26.0329 30.8861 30.517 26.402 30.517 20.877C30.517 15.352 26.0329 10.868 20.5079 10.868C14.9829 10.868 10.4988 15.352 10.4988 20.877Z" fill="#D3E5E5"/>
</svg>
