<svg width="46" height="48" viewBox="0 0 46 48" fill="none" xmlns="http://www.w3.org/2000/svg">
<path fill-rule="evenodd" clip-rule="evenodd" d="M22.8304 6.85156L11.4735 18.2085L16.5081 23.243C19.9998 26.7347 25.661 26.7347 29.1527 23.243L34.1873 18.2085L22.8304 6.85156Z" fill="#3BB6B5"/>
<mask id="mask0" mask-type="alpha" maskUnits="userSpaceOnUse" x="4" y="0" width="19" height="19">
<path d="M4.72913 0.107117H22.8305V18.2084H4.72913V0.107117Z" fill="white"/>
</mask>
<g mask="url(#mask0)">
<path fill-rule="evenodd" clip-rule="evenodd" d="M17.7119 1.73295C15.5441 -0.434826 12.0294 -0.434826 9.86162 1.73295L6.35502 5.23954C4.18716 7.4074 4.18716 10.9221 6.35502 13.0898L11.4735 18.2084L22.8305 6.85154L17.7119 1.73295Z" fill="#4AFFB1"/>
</g>
<path fill-rule="evenodd" clip-rule="evenodd" d="M39.3632 5.18223L35.8566 1.67563C33.6888 -0.492138 30.1741 -0.492138 28.0063 1.67563L22.8304 6.85152L34.1873 18.2084L39.3632 13.0326C41.531 10.8648 41.531 7.35 39.3632 5.18223Z" fill="#40D5A0"/>
<path fill-rule="evenodd" clip-rule="evenodd" d="M3.95785 45.4712H3.89393C3.55826 45.4712 3.33443 45.2634 3.19058 44.9437L0.0896412 37.9425C0.0576276 37.8307 0.00976562 37.7188 0.00976562 37.607C0.00976562 37.2873 0.281459 36.9995 0.63308 36.9995C0.984808 36.9995 1.16057 37.2073 1.2565 37.4791L3.92589 43.9366L6.64324 37.4471C6.72312 37.2073 6.89893 36.9995 7.21859 36.9995C7.55431 36.9995 7.826 37.2713 7.826 37.607C7.826 37.7188 7.79404 37.8307 7.76208 37.9106L4.64514 44.9437C4.50134 45.2634 4.29352 45.4712 3.95785 45.4712Z" fill="#1A474D"/>
<path fill-rule="evenodd" clip-rule="evenodd" d="M10.0799 37.6227C10.0799 37.2871 10.3517 36.9993 10.6873 36.9993C11.0389 36.9993 11.3107 37.2711 11.3107 37.6227V44.7997C11.3107 45.1513 11.0549 45.4231 10.7033 45.4231C10.3517 45.4231 10.0799 45.1513 10.0799 44.7997V37.6227ZM9.96802 34.4898C9.96802 34.0902 10.2877 33.8344 10.6873 33.8344C11.1029 33.8344 11.4226 34.0902 11.4226 34.4898V34.6975C11.4226 35.0812 11.1029 35.3529 10.6873 35.3529C10.2877 35.3529 9.96802 35.0812 9.96802 34.6975V34.4898Z" fill="#1A474D"/>
<path fill-rule="evenodd" clip-rule="evenodd" d="M21.2527 41.2353V41.2033C21.2527 39.2532 19.9101 38.0064 18.3437 38.0064C16.8091 38.0064 15.3545 39.3012 15.3545 41.1873V41.2193C15.3545 43.1374 16.8091 44.4161 18.3437 44.4161C19.942 44.4161 21.2527 43.2333 21.2527 41.2353ZM14.1718 34.2181C14.1718 33.8665 14.4434 33.5947 14.7791 33.5947C15.1308 33.5947 15.4024 33.8665 15.4024 34.2181V38.7417C16.0739 37.7506 17.0489 36.9035 18.5673 36.9035C20.5494 36.9035 22.5155 38.47 22.5155 41.1873V41.2193C22.5155 43.9206 20.5653 45.5191 18.5673 45.5191C17.0329 45.5191 16.0419 44.6879 15.4024 43.7608V44.7998C15.4024 45.1354 15.1467 45.4232 14.7951 45.4232C14.4434 45.4232 14.1718 45.1354 14.1718 44.7998V34.2181Z" fill="#1A474D"/>
<path fill-rule="evenodd" clip-rule="evenodd" d="M30.8431 40.7556C30.7152 39.2531 29.8521 37.9424 28.2056 37.9424C26.7671 37.9424 25.6802 39.1412 25.5203 40.7556H30.8431ZM28.3975 45.535C26.1277 45.535 24.2736 43.7927 24.2736 41.2352V41.2032C24.2736 38.8215 25.9519 36.9034 28.2376 36.9034C30.6833 36.9034 32.0739 38.9014 32.0739 41.0912C32.0739 41.427 31.8021 41.6668 31.4984 41.6668H25.5203C25.6962 43.457 26.959 44.464 28.4295 44.464C29.4525 44.464 30.2037 44.0643 30.8112 43.505C30.9071 43.425 31.019 43.3611 31.1628 43.3611C31.4665 43.3611 31.7063 43.6009 31.7063 43.8885C31.7063 44.0324 31.6423 44.1762 31.5144 44.2882C30.7312 45.0394 29.8042 45.535 28.3975 45.535Z" fill="#1A474D"/>
<path fill-rule="evenodd" clip-rule="evenodd" d="M34.3599 34.2181C34.3599 33.8825 34.6316 33.5947 34.9672 33.5947C35.3189 33.5947 35.5906 33.8825 35.5906 34.2181V44.7998C35.5906 45.1514 35.3349 45.4231 34.9832 45.4231C34.6316 45.4231 34.3599 45.1514 34.3599 44.7998V34.2181Z" fill="#1A474D"/>
<mask id="mask1" mask-type="alpha" maskUnits="userSpaceOnUse" x="37" y="36" width="9" height="12">
<path d="M37.8282 36.9995H45.7085V47.9487H37.8282V36.9995Z" fill="white"/>
</mask>
<g mask="url(#mask1)">
<path fill-rule="evenodd" clip-rule="evenodd" d="M38.2918 47.709C38.0999 47.6291 37.9081 47.4692 37.9081 47.1815C37.9081 46.8778 38.1639 46.6541 38.4357 46.6541C38.5476 46.6541 38.6434 46.6861 38.7393 46.718C38.9791 46.798 39.2189 46.8619 39.6345 46.8619C40.4017 46.8619 40.8493 46.3983 41.2969 45.3913L41.3608 45.2634L37.9081 37.9426C37.8602 37.8307 37.8282 37.7188 37.8282 37.607C37.8282 37.2713 38.0999 36.9995 38.4517 36.9995C38.7873 36.9995 38.9631 37.2073 39.075 37.4791L41.9521 43.9687L44.5097 37.4631C44.6056 37.2073 44.7814 36.9995 45.1011 36.9995C45.4368 36.9995 45.7086 37.2713 45.7086 37.607C45.7086 37.7028 45.6766 37.8147 45.6446 37.9106L42.4157 45.6151C41.6963 47.3254 40.8972 47.9487 39.6504 47.9487C39.107 47.9487 38.7073 47.8529 38.2918 47.709Z" fill="#1A474D"/>
</g>
</svg>
